G04 EAGLE Gerber RS-274X export*
G75*
%MOMM*%
%FSLAX34Y34*%
%LPD*%
%INTop Copper*%
%IPPOS*%
%AMOC8*
5,1,8,0,0,1.08239X$1,22.5*%
G01*
%ADD10C,1.270000*%
%ADD11R,1.800000X1.600000*%
%ADD12R,1.100000X1.000000*%
%ADD13R,1.000000X1.100000*%
%ADD14R,1.300000X1.500000*%
%ADD15R,1.270000X1.270000*%
%ADD16C,2.250000*%
%ADD17C,2.000000*%
%ADD18R,1.422400X1.422400*%
%ADD19P,1.539592X8X112.500000*%
%ADD20R,1.850000X3.500000*%
%ADD21R,0.406400X0.990600*%
%ADD22R,2.235200X1.727200*%
%ADD23R,0.406400X0.762000*%
%ADD24R,1.372000X0.710000*%
%ADD25R,1.180000X0.710000*%
%ADD26R,3.850000X4.520000*%
%ADD27R,1.500000X1.400000*%
%ADD28R,1.600000X1.803000*%
%ADD29R,1.803000X1.600000*%
%ADD30R,0.850000X0.280000*%
%ADD31R,0.280000X0.850000*%
%ADD32R,2.450000X2.450000*%
%ADD33C,0.909600*%
%ADD34R,0.700000X0.600000*%
%ADD35R,1.809600X1.809600*%
%ADD36C,1.809600*%
%ADD37P,2.749271X8X22.500000*%
%ADD38C,1.629600*%
%ADD39R,0.889000X1.270000*%
%ADD40C,0.808000*%
%ADD41C,0.279400*%
%ADD42C,1.300000*%

G36*
X597446Y369000D02*
X597446Y369000D01*
X597441Y369059D01*
X597425Y369087D01*
X597420Y369111D01*
X597397Y369139D01*
X597374Y369180D01*
X597458Y370098D01*
X597456Y370113D01*
X597459Y370132D01*
X597459Y371106D01*
X597463Y371112D01*
X597467Y371150D01*
X597483Y371229D01*
X597518Y374134D01*
X597510Y374169D01*
X597509Y374223D01*
X595796Y381756D01*
X595780Y381791D01*
X595752Y381867D01*
X591796Y388502D01*
X591769Y388530D01*
X591720Y388594D01*
X585906Y393682D01*
X585872Y393700D01*
X585806Y393745D01*
X578705Y396788D01*
X578670Y396794D01*
X578619Y396813D01*
X574870Y397454D01*
X574842Y397452D01*
X574806Y397459D01*
X25000Y397459D01*
X24987Y397456D01*
X24970Y397458D01*
X21516Y397186D01*
X21482Y397175D01*
X21429Y397169D01*
X14859Y395034D01*
X14826Y395014D01*
X14753Y394980D01*
X9164Y390920D01*
X9139Y390891D01*
X9080Y390836D01*
X5020Y385247D01*
X5005Y385212D01*
X4966Y385141D01*
X2831Y378571D01*
X2828Y378536D01*
X2814Y378484D01*
X2542Y375030D01*
X2544Y375017D01*
X2541Y375000D01*
X2541Y25000D01*
X2544Y24987D01*
X2542Y24970D01*
X2814Y21516D01*
X2825Y21482D01*
X2831Y21429D01*
X4966Y14859D01*
X4986Y14826D01*
X5020Y14753D01*
X9080Y9164D01*
X9109Y9139D01*
X9164Y9080D01*
X14753Y5020D01*
X14788Y5005D01*
X14859Y4966D01*
X21429Y2831D01*
X21464Y2828D01*
X21516Y2814D01*
X24970Y2542D01*
X24983Y2544D01*
X25000Y2541D01*
X573975Y2541D01*
X574029Y2553D01*
X574085Y2557D01*
X574117Y2574D01*
X574144Y2580D01*
X574170Y2602D01*
X574213Y2624D01*
X574235Y2641D01*
X575120Y2543D01*
X575138Y2545D01*
X575162Y2541D01*
X576084Y2541D01*
X576104Y2525D01*
X576123Y2521D01*
X576136Y2513D01*
X576175Y2509D01*
X576246Y2493D01*
X578403Y2424D01*
X578438Y2431D01*
X578492Y2431D01*
X584534Y3678D01*
X584568Y3694D01*
X584645Y3720D01*
X590006Y6773D01*
X590034Y6799D01*
X590098Y6847D01*
X594253Y11407D01*
X594272Y11441D01*
X594319Y11506D01*
X596861Y17127D01*
X596868Y17162D01*
X596888Y17212D01*
X596955Y17561D01*
X597452Y20158D01*
X597451Y20188D01*
X597459Y20229D01*
X597459Y368942D01*
X597446Y369000D01*
G37*
%LPC*%
G36*
X27406Y16959D02*
X27406Y16959D01*
X22613Y18945D01*
X18945Y22613D01*
X16959Y27406D01*
X16959Y32000D01*
X16948Y32050D01*
X16946Y32101D01*
X16928Y32133D01*
X16920Y32169D01*
X16887Y32208D01*
X16863Y32253D01*
X16833Y32274D01*
X16810Y32302D01*
X16763Y32323D01*
X16721Y32353D01*
X16679Y32361D01*
X16651Y32373D01*
X16621Y32372D01*
X16579Y32380D01*
X15380Y32380D01*
X15380Y134620D01*
X80000Y134620D01*
X80050Y134631D01*
X80101Y134633D01*
X80133Y134651D01*
X80169Y134659D01*
X80208Y134692D01*
X80253Y134716D01*
X80274Y134746D01*
X80302Y134769D01*
X80323Y134816D01*
X80353Y134858D01*
X80361Y134900D01*
X80373Y134928D01*
X80372Y134958D01*
X80380Y135000D01*
X80380Y269843D01*
X105269Y294731D01*
X105309Y294796D01*
X105353Y294858D01*
X105355Y294870D01*
X105360Y294878D01*
X105364Y294915D01*
X105380Y295000D01*
X105380Y314620D01*
X132460Y314620D01*
X132510Y314631D01*
X132561Y314633D01*
X132593Y314651D01*
X132629Y314659D01*
X132668Y314692D01*
X132713Y314716D01*
X132734Y314746D01*
X132762Y314769D01*
X132783Y314816D01*
X132813Y314858D01*
X132821Y314900D01*
X132833Y314928D01*
X132832Y314958D01*
X132840Y315000D01*
X132840Y339980D01*
X167260Y339980D01*
X167260Y312420D01*
X167271Y312370D01*
X167273Y312319D01*
X167291Y312287D01*
X167299Y312251D01*
X167332Y312212D01*
X167356Y312167D01*
X167386Y312146D01*
X167409Y312118D01*
X167456Y312097D01*
X167498Y312067D01*
X167540Y312059D01*
X167568Y312047D01*
X167598Y312048D01*
X167640Y312040D01*
X261364Y312040D01*
X261414Y312051D01*
X261465Y312053D01*
X261497Y312071D01*
X261533Y312079D01*
X261572Y312112D01*
X261617Y312136D01*
X261638Y312166D01*
X261666Y312189D01*
X261687Y312236D01*
X261717Y312278D01*
X261725Y312320D01*
X261737Y312348D01*
X261736Y312378D01*
X261744Y312420D01*
X261744Y322020D01*
X279840Y322020D01*
X279890Y322031D01*
X279941Y322033D01*
X279973Y322051D01*
X280009Y322059D01*
X280048Y322092D01*
X280093Y322116D01*
X280114Y322146D01*
X280142Y322169D01*
X280163Y322216D01*
X280193Y322258D01*
X280201Y322300D01*
X280213Y322328D01*
X280212Y322358D01*
X280220Y322400D01*
X280220Y374941D01*
X411100Y375538D01*
X411100Y340360D01*
X411111Y340310D01*
X411113Y340259D01*
X411131Y340227D01*
X411139Y340191D01*
X411172Y340152D01*
X411196Y340107D01*
X411226Y340086D01*
X411249Y340058D01*
X411296Y340037D01*
X411338Y340007D01*
X411380Y339999D01*
X411408Y339987D01*
X411438Y339988D01*
X411480Y339980D01*
X462108Y339980D01*
X462108Y299974D01*
X462119Y299924D01*
X462121Y299873D01*
X462139Y299841D01*
X462147Y299805D01*
X462180Y299766D01*
X462204Y299721D01*
X462234Y299700D01*
X462257Y299672D01*
X462304Y299651D01*
X462346Y299621D01*
X462388Y299613D01*
X462416Y299601D01*
X462446Y299602D01*
X462488Y299594D01*
X479789Y299594D01*
X489651Y289731D01*
X489716Y289691D01*
X489778Y289647D01*
X489790Y289645D01*
X489798Y289640D01*
X489835Y289636D01*
X489920Y289620D01*
X579540Y289620D01*
X579540Y100140D01*
X459920Y100140D01*
X459870Y100129D01*
X459819Y100127D01*
X459787Y100109D01*
X459751Y100101D01*
X459712Y100068D01*
X459667Y100044D01*
X459646Y100014D01*
X459618Y99991D01*
X459597Y99944D01*
X459567Y99902D01*
X459559Y99860D01*
X459547Y99832D01*
X459548Y99802D01*
X459540Y99760D01*
X459540Y32380D01*
X43421Y32380D01*
X43371Y32369D01*
X43320Y32367D01*
X43288Y32349D01*
X43252Y32341D01*
X43213Y32308D01*
X43168Y32284D01*
X43147Y32254D01*
X43119Y32231D01*
X43098Y32184D01*
X43068Y32142D01*
X43060Y32100D01*
X43048Y32072D01*
X43049Y32042D01*
X43041Y32000D01*
X43041Y27406D01*
X41055Y22613D01*
X37387Y18945D01*
X32594Y16959D01*
X27406Y16959D01*
G37*
%LPD*%
G36*
X99834Y44637D02*
X99834Y44637D01*
X99909Y44650D01*
X99919Y44657D01*
X99929Y44659D01*
X99958Y44683D01*
X100029Y44731D01*
X141031Y85733D01*
X141071Y85798D01*
X141115Y85860D01*
X141117Y85872D01*
X141122Y85880D01*
X141126Y85917D01*
X141142Y86002D01*
X141142Y249620D01*
X174620Y249620D01*
X174620Y232032D01*
X174631Y231982D01*
X174633Y231931D01*
X174651Y231899D01*
X174659Y231863D01*
X174692Y231824D01*
X174716Y231779D01*
X174746Y231758D01*
X174769Y231730D01*
X174816Y231709D01*
X174858Y231679D01*
X174900Y231671D01*
X174928Y231659D01*
X174958Y231660D01*
X175000Y231652D01*
X220000Y231652D01*
X220050Y231663D01*
X220101Y231665D01*
X220133Y231683D01*
X220169Y231691D01*
X220208Y231724D01*
X220253Y231748D01*
X220274Y231778D01*
X220302Y231801D01*
X220323Y231848D01*
X220353Y231890D01*
X220361Y231932D01*
X220373Y231960D01*
X220372Y231990D01*
X220380Y232032D01*
X220380Y300879D01*
X220369Y300929D01*
X220367Y300980D01*
X220349Y301012D01*
X220341Y301048D01*
X220308Y301087D01*
X220284Y301132D01*
X220254Y301153D01*
X220231Y301181D01*
X220184Y301202D01*
X220142Y301232D01*
X220100Y301240D01*
X220072Y301252D01*
X220042Y301251D01*
X220000Y301259D01*
X167714Y301259D01*
X167664Y301248D01*
X167613Y301246D01*
X167581Y301228D01*
X167545Y301220D01*
X167506Y301187D01*
X167461Y301163D01*
X167440Y301133D01*
X167412Y301110D01*
X167391Y301063D01*
X167361Y301021D01*
X167353Y300979D01*
X167341Y300951D01*
X167342Y300921D01*
X167334Y300879D01*
X167334Y280380D01*
X102200Y280380D01*
X102126Y280363D01*
X102051Y280350D01*
X102041Y280343D01*
X102031Y280341D01*
X102002Y280317D01*
X101931Y280269D01*
X89731Y268069D01*
X89691Y268004D01*
X89647Y267942D01*
X89645Y267930D01*
X89640Y267922D01*
X89636Y267885D01*
X89620Y267800D01*
X89620Y125380D01*
X25000Y125380D01*
X24950Y125369D01*
X24899Y125367D01*
X24867Y125349D01*
X24831Y125341D01*
X24792Y125308D01*
X24747Y125284D01*
X24726Y125254D01*
X24698Y125231D01*
X24677Y125184D01*
X24647Y125142D01*
X24639Y125100D01*
X24627Y125072D01*
X24628Y125042D01*
X24620Y125000D01*
X24620Y45000D01*
X24631Y44950D01*
X24633Y44899D01*
X24651Y44867D01*
X24659Y44831D01*
X24692Y44792D01*
X24716Y44747D01*
X24746Y44726D01*
X24769Y44698D01*
X24816Y44677D01*
X24858Y44647D01*
X24900Y44639D01*
X24928Y44627D01*
X24958Y44628D01*
X25000Y44620D01*
X99760Y44620D01*
X99834Y44637D01*
G37*
G36*
X399592Y238137D02*
X399592Y238137D01*
X399643Y238139D01*
X399675Y238157D01*
X399711Y238165D01*
X399750Y238198D01*
X399795Y238222D01*
X399816Y238252D01*
X399844Y238275D01*
X399865Y238322D01*
X399895Y238364D01*
X399903Y238406D01*
X399915Y238434D01*
X399914Y238464D01*
X399922Y238506D01*
X399922Y365760D01*
X399911Y365810D01*
X399909Y365861D01*
X399891Y365893D01*
X399883Y365929D01*
X399850Y365968D01*
X399826Y366013D01*
X399796Y366034D01*
X399773Y366062D01*
X399726Y366083D01*
X399684Y366113D01*
X399642Y366121D01*
X399614Y366133D01*
X399584Y366132D01*
X399542Y366140D01*
X289560Y366140D01*
X289510Y366129D01*
X289459Y366127D01*
X289427Y366109D01*
X289391Y366101D01*
X289352Y366068D01*
X289307Y366044D01*
X289286Y366014D01*
X289258Y365991D01*
X289237Y365944D01*
X289207Y365902D01*
X289199Y365860D01*
X289187Y365832D01*
X289188Y365802D01*
X289180Y365760D01*
X289180Y309880D01*
X289191Y309830D01*
X289193Y309779D01*
X289211Y309747D01*
X289219Y309711D01*
X289252Y309672D01*
X289276Y309627D01*
X289306Y309606D01*
X289329Y309578D01*
X289376Y309557D01*
X289418Y309527D01*
X289460Y309519D01*
X289488Y309507D01*
X289518Y309508D01*
X289560Y309500D01*
X304643Y309500D01*
X319771Y294371D01*
X319836Y294331D01*
X319898Y294287D01*
X319910Y294285D01*
X319918Y294280D01*
X319955Y294276D01*
X320040Y294260D01*
X335123Y294260D01*
X339980Y289403D01*
X339980Y279558D01*
X336139Y275716D01*
X321056Y275716D01*
X321006Y275705D01*
X320955Y275703D01*
X320923Y275685D01*
X320887Y275677D01*
X320848Y275644D01*
X320803Y275620D01*
X320782Y275590D01*
X320754Y275567D01*
X320733Y275520D01*
X320703Y275478D01*
X320695Y275436D01*
X320683Y275408D01*
X320684Y275378D01*
X320676Y275336D01*
X320676Y243586D01*
X320693Y243512D01*
X320706Y243437D01*
X320713Y243427D01*
X320715Y243417D01*
X320739Y243388D01*
X320787Y243317D01*
X325867Y238237D01*
X325932Y238197D01*
X325994Y238153D01*
X326006Y238151D01*
X326014Y238146D01*
X326051Y238142D01*
X326136Y238126D01*
X399542Y238126D01*
X399592Y238137D01*
G37*
G36*
X452194Y106317D02*
X452194Y106317D01*
X452269Y106330D01*
X452279Y106337D01*
X452289Y106339D01*
X452318Y106363D01*
X452389Y106411D01*
X457358Y111380D01*
X568960Y111380D01*
X569010Y111391D01*
X569061Y111393D01*
X569093Y111411D01*
X569129Y111419D01*
X569168Y111452D01*
X569213Y111476D01*
X569234Y111506D01*
X569262Y111529D01*
X569283Y111576D01*
X569313Y111618D01*
X569321Y111660D01*
X569333Y111688D01*
X569332Y111718D01*
X569340Y111760D01*
X569340Y203200D01*
X569329Y203250D01*
X569327Y203301D01*
X569309Y203333D01*
X569301Y203369D01*
X569268Y203408D01*
X569244Y203453D01*
X569214Y203474D01*
X569191Y203502D01*
X569144Y203523D01*
X569102Y203553D01*
X569060Y203561D01*
X569032Y203573D01*
X569002Y203572D01*
X568960Y203580D01*
X492760Y203580D01*
X492710Y203569D01*
X492659Y203567D01*
X492627Y203549D01*
X492591Y203541D01*
X492552Y203508D01*
X492507Y203484D01*
X492486Y203454D01*
X492458Y203431D01*
X492437Y203384D01*
X492407Y203342D01*
X492399Y203300D01*
X492387Y203272D01*
X492388Y203242D01*
X492380Y203200D01*
X492380Y185578D01*
X477251Y170449D01*
X477238Y170428D01*
X477219Y170412D01*
X477199Y170368D01*
X477167Y170322D01*
X477165Y170310D01*
X477160Y170302D01*
X477157Y170273D01*
X477148Y170254D01*
X477149Y170230D01*
X477140Y170180D01*
X477140Y157860D01*
X469775Y150494D01*
X454914Y150494D01*
X454840Y150477D01*
X454765Y150464D01*
X454755Y150457D01*
X454745Y150455D01*
X454716Y150431D01*
X454645Y150383D01*
X436611Y132349D01*
X436571Y132284D01*
X436527Y132222D01*
X436525Y132210D01*
X436520Y132202D01*
X436516Y132165D01*
X436500Y132080D01*
X436500Y106680D01*
X436511Y106630D01*
X436513Y106579D01*
X436531Y106547D01*
X436539Y106511D01*
X436572Y106472D01*
X436596Y106427D01*
X436626Y106406D01*
X436649Y106378D01*
X436696Y106357D01*
X436738Y106327D01*
X436780Y106319D01*
X436808Y106307D01*
X436838Y106308D01*
X436880Y106300D01*
X452120Y106300D01*
X452194Y106317D01*
G37*
G36*
X467410Y162191D02*
X467410Y162191D01*
X467461Y162193D01*
X467493Y162211D01*
X467529Y162219D01*
X467568Y162252D01*
X467613Y162276D01*
X467634Y162306D01*
X467662Y162329D01*
X467683Y162376D01*
X467713Y162418D01*
X467721Y162460D01*
X467733Y162488D01*
X467732Y162518D01*
X467740Y162560D01*
X467740Y238760D01*
X467723Y238834D01*
X467710Y238909D01*
X467703Y238919D01*
X467701Y238929D01*
X467677Y238958D01*
X467629Y239029D01*
X457580Y249078D01*
X457580Y330200D01*
X457569Y330250D01*
X457567Y330301D01*
X457549Y330333D01*
X457541Y330369D01*
X457508Y330408D01*
X457484Y330453D01*
X457454Y330474D01*
X457431Y330502D01*
X457384Y330523D01*
X457342Y330553D01*
X457300Y330561D01*
X457272Y330573D01*
X457242Y330572D01*
X457200Y330580D01*
X411480Y330580D01*
X411430Y330569D01*
X411379Y330567D01*
X411347Y330549D01*
X411311Y330541D01*
X411272Y330508D01*
X411227Y330484D01*
X411206Y330454D01*
X411178Y330431D01*
X411157Y330384D01*
X411127Y330342D01*
X411119Y330300D01*
X411107Y330272D01*
X411108Y330242D01*
X411100Y330200D01*
X411100Y228600D01*
X411117Y228526D01*
X411130Y228451D01*
X411137Y228441D01*
X411139Y228431D01*
X411163Y228402D01*
X411211Y228331D01*
X431166Y208377D01*
X431166Y183134D01*
X431183Y183060D01*
X431196Y182985D01*
X431203Y182975D01*
X431205Y182965D01*
X431229Y182936D01*
X431277Y182865D01*
X451851Y162291D01*
X451916Y162251D01*
X451978Y162207D01*
X451990Y162205D01*
X451998Y162200D01*
X452035Y162196D01*
X452120Y162180D01*
X467360Y162180D01*
X467410Y162191D01*
G37*
G36*
X242384Y194791D02*
X242384Y194791D01*
X242432Y194792D01*
X242468Y194810D01*
X242506Y194819D01*
X242543Y194850D01*
X242586Y194872D01*
X242609Y194904D01*
X242640Y194929D01*
X242659Y194973D01*
X242688Y195012D01*
X242697Y195058D01*
X242711Y195088D01*
X242710Y195116D01*
X242718Y195154D01*
X242819Y201804D01*
X254000Y201804D01*
X254050Y201815D01*
X254101Y201817D01*
X254133Y201835D01*
X254169Y201843D01*
X254208Y201876D01*
X254253Y201900D01*
X254274Y201930D01*
X254302Y201953D01*
X254323Y202000D01*
X254353Y202042D01*
X254361Y202084D01*
X254373Y202112D01*
X254372Y202142D01*
X254380Y202184D01*
X254380Y230103D01*
X309666Y230103D01*
X309716Y230115D01*
X309767Y230117D01*
X309799Y230134D01*
X309835Y230143D01*
X309874Y230175D01*
X309919Y230199D01*
X309940Y230229D01*
X309968Y230253D01*
X309989Y230299D01*
X310019Y230341D01*
X310027Y230383D01*
X310039Y230411D01*
X310038Y230441D01*
X310046Y230483D01*
X310046Y232256D01*
X310029Y232330D01*
X310016Y232405D01*
X310009Y232415D01*
X310007Y232425D01*
X310006Y232426D01*
X310006Y291846D01*
X309989Y291920D01*
X309976Y291995D01*
X309969Y292005D01*
X309967Y292015D01*
X309943Y292044D01*
X309895Y292115D01*
X300593Y301417D01*
X300528Y301457D01*
X300466Y301501D01*
X300454Y301503D01*
X300446Y301508D01*
X300409Y301512D01*
X300324Y301528D01*
X227540Y301528D01*
X227466Y301511D01*
X227391Y301498D01*
X227381Y301491D01*
X227371Y301489D01*
X227342Y301465D01*
X227271Y301417D01*
X227113Y301259D01*
X227073Y301195D01*
X227030Y301133D01*
X227027Y301120D01*
X227022Y301112D01*
X227018Y301075D01*
X227002Y300990D01*
X226925Y226440D01*
X217170Y226440D01*
X217120Y226429D01*
X217069Y226427D01*
X217037Y226409D01*
X217001Y226401D01*
X216962Y226368D01*
X216917Y226344D01*
X216896Y226314D01*
X216868Y226291D01*
X216847Y226244D01*
X216817Y226202D01*
X216809Y226160D01*
X216797Y226132D01*
X216798Y226102D01*
X216790Y226060D01*
X216790Y215138D01*
X216807Y215064D01*
X216820Y214989D01*
X216827Y214979D01*
X216829Y214969D01*
X216853Y214940D01*
X216901Y214869D01*
X223858Y207913D01*
X223858Y195160D01*
X223869Y195110D01*
X223871Y195059D01*
X223889Y195027D01*
X223897Y194991D01*
X223930Y194952D01*
X223954Y194907D01*
X223984Y194886D01*
X224007Y194858D01*
X224054Y194837D01*
X224096Y194807D01*
X224138Y194799D01*
X224166Y194787D01*
X224196Y194788D01*
X224238Y194780D01*
X242337Y194780D01*
X242384Y194791D01*
G37*
G36*
X569010Y207911D02*
X569010Y207911D01*
X569061Y207913D01*
X569093Y207931D01*
X569129Y207939D01*
X569168Y207972D01*
X569213Y207996D01*
X569234Y208026D01*
X569262Y208049D01*
X569283Y208096D01*
X569313Y208138D01*
X569321Y208180D01*
X569333Y208208D01*
X569332Y208238D01*
X569340Y208280D01*
X569340Y279400D01*
X569329Y279450D01*
X569327Y279501D01*
X569309Y279533D01*
X569301Y279569D01*
X569268Y279608D01*
X569244Y279653D01*
X569214Y279674D01*
X569191Y279702D01*
X569144Y279723D01*
X569102Y279753D01*
X569060Y279761D01*
X569032Y279773D01*
X569002Y279772D01*
X568960Y279780D01*
X489108Y279780D01*
X479059Y289829D01*
X478994Y289869D01*
X478932Y289913D01*
X478920Y289915D01*
X478912Y289920D01*
X478875Y289924D01*
X478790Y289940D01*
X462280Y289940D01*
X462230Y289929D01*
X462179Y289927D01*
X462147Y289909D01*
X462111Y289901D01*
X462072Y289868D01*
X462027Y289844D01*
X462006Y289814D01*
X461978Y289791D01*
X461957Y289744D01*
X461927Y289702D01*
X461919Y289660D01*
X461907Y289632D01*
X461908Y289602D01*
X461900Y289560D01*
X461900Y254000D01*
X461917Y253926D01*
X461930Y253851D01*
X461937Y253841D01*
X461939Y253831D01*
X461963Y253802D01*
X462011Y253731D01*
X472171Y243571D01*
X472236Y243531D01*
X472298Y243487D01*
X472310Y243485D01*
X472318Y243480D01*
X472355Y243476D01*
X472440Y243460D01*
X509906Y243460D01*
X509906Y208280D01*
X509917Y208230D01*
X509919Y208179D01*
X509937Y208147D01*
X509945Y208111D01*
X509978Y208072D01*
X510002Y208027D01*
X510032Y208006D01*
X510055Y207978D01*
X510102Y207957D01*
X510144Y207927D01*
X510186Y207919D01*
X510214Y207907D01*
X510244Y207908D01*
X510286Y207900D01*
X568960Y207900D01*
X569010Y207911D01*
G37*
G36*
X236754Y134717D02*
X236754Y134717D01*
X236829Y134730D01*
X236839Y134737D01*
X236849Y134739D01*
X236878Y134763D01*
X236949Y134811D01*
X245269Y143131D01*
X245309Y143196D01*
X245353Y143258D01*
X245355Y143270D01*
X245360Y143278D01*
X245364Y143315D01*
X245380Y143400D01*
X245380Y172968D01*
X245363Y173042D01*
X245350Y173117D01*
X245343Y173127D01*
X245341Y173137D01*
X245317Y173166D01*
X245269Y173237D01*
X242867Y175639D01*
X242959Y184908D01*
X242948Y184960D01*
X242946Y185013D01*
X242929Y185043D01*
X242922Y185077D01*
X242888Y185118D01*
X242863Y185165D01*
X242835Y185185D01*
X242813Y185212D01*
X242765Y185234D01*
X242722Y185265D01*
X242682Y185272D01*
X242655Y185285D01*
X242624Y185284D01*
X242579Y185292D01*
X224790Y185292D01*
X224740Y185281D01*
X224689Y185279D01*
X224657Y185261D01*
X224621Y185253D01*
X224582Y185220D01*
X224537Y185196D01*
X224516Y185166D01*
X224488Y185143D01*
X224467Y185096D01*
X224437Y185054D01*
X224429Y185012D01*
X224417Y184984D01*
X224417Y184967D01*
X224417Y184965D01*
X224417Y184951D01*
X224410Y184912D01*
X224410Y179222D01*
X218284Y173127D01*
X209236Y173173D01*
X209235Y173173D01*
X209234Y173173D01*
X191885Y173173D01*
X191856Y173191D01*
X191794Y173235D01*
X191781Y173237D01*
X191772Y173243D01*
X191734Y173247D01*
X191652Y173263D01*
X175002Y173348D01*
X174951Y173337D01*
X174899Y173335D01*
X174868Y173318D01*
X174833Y173310D01*
X174793Y173277D01*
X174747Y173252D01*
X174727Y173223D01*
X174699Y173200D01*
X174677Y173153D01*
X174647Y173110D01*
X174640Y173070D01*
X174627Y173042D01*
X174628Y173011D01*
X174620Y172968D01*
X174620Y151644D01*
X174637Y151570D01*
X174650Y151495D01*
X174657Y151485D01*
X174659Y151475D01*
X174683Y151446D01*
X174731Y151375D01*
X191295Y134811D01*
X191360Y134771D01*
X191422Y134727D01*
X191434Y134725D01*
X191442Y134720D01*
X191479Y134716D01*
X191564Y134700D01*
X236680Y134700D01*
X236754Y134717D01*
G37*
G36*
X309954Y45357D02*
X309954Y45357D01*
X310029Y45370D01*
X310039Y45377D01*
X310049Y45379D01*
X310078Y45403D01*
X310149Y45451D01*
X323278Y58580D01*
X335280Y58580D01*
X335330Y58591D01*
X335381Y58593D01*
X335413Y58611D01*
X335449Y58619D01*
X335488Y58652D01*
X335533Y58676D01*
X335554Y58706D01*
X335582Y58729D01*
X335603Y58776D01*
X335633Y58818D01*
X335641Y58860D01*
X335653Y58888D01*
X335652Y58918D01*
X335660Y58960D01*
X335660Y96266D01*
X335643Y96340D01*
X335630Y96415D01*
X335623Y96425D01*
X335621Y96435D01*
X335597Y96464D01*
X335549Y96535D01*
X333517Y98567D01*
X333452Y98607D01*
X333390Y98651D01*
X333378Y98653D01*
X333370Y98658D01*
X333333Y98662D01*
X333248Y98678D01*
X279654Y98678D01*
X279604Y98667D01*
X279553Y98665D01*
X279521Y98647D01*
X279485Y98639D01*
X279446Y98606D01*
X279401Y98582D01*
X279380Y98552D01*
X279352Y98529D01*
X279331Y98482D01*
X279301Y98440D01*
X279293Y98398D01*
X279281Y98370D01*
X279282Y98340D01*
X279274Y98298D01*
X279274Y72898D01*
X279291Y72824D01*
X279304Y72749D01*
X279311Y72739D01*
X279313Y72729D01*
X279337Y72700D01*
X279385Y72629D01*
X289180Y62835D01*
X289180Y48480D01*
X289197Y48406D01*
X289210Y48331D01*
X289217Y48321D01*
X289219Y48311D01*
X289243Y48282D01*
X289291Y48211D01*
X292051Y45451D01*
X292115Y45411D01*
X292177Y45367D01*
X292190Y45365D01*
X292198Y45360D01*
X292235Y45356D01*
X292320Y45340D01*
X309880Y45340D01*
X309954Y45357D01*
G37*
G36*
X210894Y179215D02*
X210894Y179215D01*
X210969Y179228D01*
X210979Y179235D01*
X210989Y179237D01*
X211018Y179261D01*
X211089Y179309D01*
X213883Y182103D01*
X213923Y182168D01*
X213967Y182230D01*
X213969Y182242D01*
X213974Y182250D01*
X213978Y182287D01*
X213994Y182372D01*
X213994Y206248D01*
X213977Y206322D01*
X213964Y206397D01*
X213957Y206407D01*
X213955Y206417D01*
X213931Y206446D01*
X213883Y206517D01*
X205612Y214788D01*
X205612Y226060D01*
X205601Y226110D01*
X205599Y226161D01*
X205581Y226193D01*
X205573Y226229D01*
X205540Y226268D01*
X205516Y226313D01*
X205486Y226334D01*
X205463Y226362D01*
X205416Y226383D01*
X205374Y226413D01*
X205332Y226421D01*
X205304Y226433D01*
X205274Y226432D01*
X205231Y226440D01*
X169380Y226379D01*
X169380Y230000D01*
X169369Y230050D01*
X169367Y230101D01*
X169349Y230133D01*
X169341Y230169D01*
X169308Y230208D01*
X169284Y230253D01*
X169254Y230274D01*
X169231Y230302D01*
X169184Y230323D01*
X169142Y230353D01*
X169100Y230361D01*
X169072Y230373D01*
X169042Y230372D01*
X169000Y230380D01*
X155000Y230380D01*
X154926Y230363D01*
X154851Y230350D01*
X154841Y230343D01*
X154831Y230341D01*
X154802Y230317D01*
X154731Y230269D01*
X152131Y227669D01*
X152091Y227604D01*
X152047Y227542D01*
X152045Y227530D01*
X152040Y227522D01*
X152036Y227485D01*
X152020Y227400D01*
X152020Y203200D01*
X152031Y203150D01*
X152033Y203099D01*
X152051Y203067D01*
X152059Y203031D01*
X152092Y202992D01*
X152116Y202947D01*
X152146Y202926D01*
X152169Y202898D01*
X152216Y202877D01*
X152258Y202847D01*
X152300Y202839D01*
X152328Y202827D01*
X152358Y202828D01*
X152400Y202820D01*
X167260Y202820D01*
X167260Y191262D01*
X167277Y191188D01*
X167290Y191113D01*
X167297Y191103D01*
X167299Y191093D01*
X167323Y191064D01*
X167371Y190993D01*
X167625Y190739D01*
X167690Y190699D01*
X167752Y190655D01*
X167764Y190653D01*
X167772Y190648D01*
X167809Y190644D01*
X167894Y190628D01*
X187079Y190628D01*
X187153Y190645D01*
X187228Y190658D01*
X187238Y190665D01*
X187248Y190667D01*
X187276Y190691D01*
X187348Y190739D01*
X187436Y190828D01*
X192764Y190828D01*
X192852Y190739D01*
X192917Y190699D01*
X192979Y190655D01*
X192991Y190653D01*
X192999Y190648D01*
X193036Y190644D01*
X193121Y190628D01*
X194438Y190628D01*
X194438Y181102D01*
X194453Y181038D01*
X194454Y180998D01*
X194463Y180982D01*
X194468Y180953D01*
X194475Y180943D01*
X194477Y180933D01*
X194501Y180904D01*
X194523Y180871D01*
X194537Y180846D01*
X194543Y180842D01*
X194549Y180833D01*
X196073Y179309D01*
X196138Y179269D01*
X196200Y179225D01*
X196212Y179223D01*
X196220Y179218D01*
X196257Y179214D01*
X196342Y179198D01*
X210820Y179198D01*
X210894Y179215D01*
G37*
G36*
X424230Y101485D02*
X424230Y101485D01*
X424281Y101487D01*
X424313Y101505D01*
X424349Y101513D01*
X424388Y101546D01*
X424433Y101570D01*
X424454Y101600D01*
X424482Y101623D01*
X424503Y101670D01*
X424533Y101712D01*
X424541Y101754D01*
X424553Y101782D01*
X424552Y101812D01*
X424560Y101854D01*
X424560Y113820D01*
X424543Y113894D01*
X424530Y113969D01*
X424523Y113979D01*
X424521Y113989D01*
X424497Y114018D01*
X424449Y114089D01*
X420269Y118269D01*
X420204Y118309D01*
X420142Y118353D01*
X420130Y118355D01*
X420122Y118360D01*
X420085Y118364D01*
X420000Y118380D01*
X412149Y118380D01*
X401270Y129259D01*
X398303Y132251D01*
X398240Y132291D01*
X398179Y132335D01*
X398166Y132337D01*
X398157Y132343D01*
X398119Y132347D01*
X398037Y132363D01*
X386419Y132460D01*
X386418Y132460D01*
X386416Y132460D01*
X350724Y132460D01*
X350674Y132449D01*
X350623Y132447D01*
X350591Y132429D01*
X350555Y132421D01*
X350516Y132388D01*
X350471Y132364D01*
X350450Y132334D01*
X350421Y132311D01*
X350401Y132264D01*
X350371Y132222D01*
X350363Y132180D01*
X350351Y132152D01*
X350352Y132122D01*
X350344Y132080D01*
X350344Y122692D01*
X350251Y122599D01*
X350211Y122535D01*
X350167Y122473D01*
X350165Y122460D01*
X350160Y122452D01*
X350156Y122415D01*
X350140Y122330D01*
X350140Y122078D01*
X346949Y118887D01*
X346909Y118822D01*
X346865Y118760D01*
X346863Y118748D01*
X346858Y118740D01*
X346854Y118703D01*
X346846Y118660D01*
X346845Y118657D01*
X346845Y118654D01*
X346838Y118618D01*
X346838Y105156D01*
X346855Y105082D01*
X346868Y105007D01*
X346875Y104997D01*
X346877Y104987D01*
X346901Y104958D01*
X346949Y104887D01*
X350251Y101585D01*
X350316Y101545D01*
X350378Y101501D01*
X350390Y101499D01*
X350398Y101494D01*
X350435Y101490D01*
X350520Y101474D01*
X424180Y101474D01*
X424230Y101485D01*
G37*
G36*
X162610Y289191D02*
X162610Y289191D01*
X162661Y289193D01*
X162693Y289211D01*
X162729Y289219D01*
X162768Y289252D01*
X162813Y289276D01*
X162834Y289306D01*
X162862Y289329D01*
X162883Y289376D01*
X162913Y289418D01*
X162921Y289460D01*
X162933Y289488D01*
X162932Y289518D01*
X162940Y289560D01*
X162940Y335280D01*
X162929Y335330D01*
X162927Y335381D01*
X162909Y335413D01*
X162901Y335449D01*
X162868Y335488D01*
X162844Y335533D01*
X162814Y335554D01*
X162791Y335582D01*
X162744Y335603D01*
X162702Y335633D01*
X162660Y335641D01*
X162632Y335653D01*
X162602Y335652D01*
X162560Y335660D01*
X138176Y335660D01*
X138126Y335649D01*
X138075Y335647D01*
X138043Y335629D01*
X138007Y335621D01*
X137968Y335588D01*
X137923Y335564D01*
X137902Y335534D01*
X137874Y335511D01*
X137853Y335464D01*
X137823Y335422D01*
X137815Y335380D01*
X137803Y335352D01*
X137804Y335322D01*
X137796Y335280D01*
X137796Y310260D01*
X111760Y310260D01*
X111710Y310249D01*
X111659Y310247D01*
X111627Y310229D01*
X111591Y310221D01*
X111552Y310188D01*
X111507Y310164D01*
X111486Y310134D01*
X111458Y310111D01*
X111437Y310064D01*
X111407Y310022D01*
X111399Y309980D01*
X111387Y309952D01*
X111388Y309922D01*
X111380Y309880D01*
X111380Y289560D01*
X111391Y289510D01*
X111393Y289459D01*
X111411Y289427D01*
X111419Y289391D01*
X111452Y289352D01*
X111476Y289307D01*
X111506Y289286D01*
X111529Y289258D01*
X111576Y289237D01*
X111618Y289207D01*
X111660Y289199D01*
X111688Y289187D01*
X111718Y289188D01*
X111760Y289180D01*
X162560Y289180D01*
X162610Y289191D01*
G37*
G36*
X426770Y161175D02*
X426770Y161175D01*
X426821Y161177D01*
X426853Y161195D01*
X426889Y161203D01*
X426928Y161236D01*
X426973Y161260D01*
X426994Y161290D01*
X427022Y161313D01*
X427043Y161360D01*
X427073Y161402D01*
X427081Y161444D01*
X427093Y161472D01*
X427092Y161502D01*
X427100Y161544D01*
X427100Y203200D01*
X427083Y203274D01*
X427070Y203349D01*
X427063Y203359D01*
X427061Y203369D01*
X427037Y203398D01*
X426989Y203469D01*
X414289Y216169D01*
X414224Y216209D01*
X414162Y216253D01*
X414150Y216255D01*
X414142Y216260D01*
X414105Y216264D01*
X414020Y216280D01*
X397764Y216280D01*
X397714Y216269D01*
X397663Y216267D01*
X397631Y216249D01*
X397595Y216241D01*
X397556Y216208D01*
X397511Y216184D01*
X397490Y216154D01*
X397462Y216131D01*
X397441Y216084D01*
X397411Y216042D01*
X397403Y216000D01*
X397391Y215972D01*
X397392Y215942D01*
X397384Y215900D01*
X397384Y161544D01*
X397395Y161494D01*
X397397Y161443D01*
X397415Y161411D01*
X397423Y161375D01*
X397456Y161336D01*
X397480Y161291D01*
X397510Y161270D01*
X397533Y161242D01*
X397580Y161221D01*
X397622Y161191D01*
X397664Y161183D01*
X397692Y161171D01*
X397722Y161172D01*
X397764Y161164D01*
X426720Y161164D01*
X426770Y161175D01*
G37*
G36*
X507288Y207911D02*
X507288Y207911D01*
X507339Y207913D01*
X507371Y207931D01*
X507407Y207939D01*
X507446Y207972D01*
X507491Y207996D01*
X507512Y208026D01*
X507540Y208049D01*
X507561Y208096D01*
X507591Y208138D01*
X507599Y208180D01*
X507611Y208208D01*
X507610Y208238D01*
X507618Y208280D01*
X507618Y236220D01*
X507607Y236270D01*
X507605Y236321D01*
X507587Y236353D01*
X507579Y236389D01*
X507546Y236428D01*
X507522Y236473D01*
X507492Y236494D01*
X507469Y236522D01*
X507422Y236543D01*
X507380Y236573D01*
X507338Y236581D01*
X507310Y236593D01*
X507280Y236592D01*
X507238Y236600D01*
X472440Y236600D01*
X472390Y236589D01*
X472339Y236587D01*
X472307Y236569D01*
X472271Y236561D01*
X472232Y236528D01*
X472187Y236504D01*
X472166Y236474D01*
X472138Y236451D01*
X472117Y236404D01*
X472087Y236362D01*
X472079Y236320D01*
X472067Y236292D01*
X472068Y236262D01*
X472060Y236220D01*
X472060Y208280D01*
X472071Y208230D01*
X472073Y208179D01*
X472091Y208147D01*
X472099Y208111D01*
X472132Y208072D01*
X472156Y208027D01*
X472186Y208006D01*
X472209Y207978D01*
X472256Y207957D01*
X472298Y207927D01*
X472340Y207919D01*
X472368Y207907D01*
X472398Y207908D01*
X472440Y207900D01*
X507238Y207900D01*
X507288Y207911D01*
G37*
G36*
X328980Y182511D02*
X328980Y182511D01*
X329031Y182513D01*
X329063Y182531D01*
X329099Y182539D01*
X329138Y182572D01*
X329183Y182596D01*
X329204Y182626D01*
X329232Y182649D01*
X329253Y182696D01*
X329283Y182738D01*
X329291Y182780D01*
X329303Y182808D01*
X329302Y182838D01*
X329310Y182880D01*
X329310Y189230D01*
X329299Y189280D01*
X329297Y189331D01*
X329279Y189363D01*
X329271Y189399D01*
X329238Y189438D01*
X329214Y189483D01*
X329184Y189504D01*
X329161Y189532D01*
X329114Y189553D01*
X329072Y189583D01*
X329030Y189591D01*
X329002Y189603D01*
X328972Y189602D01*
X328930Y189610D01*
X325532Y189610D01*
X318134Y197008D01*
X318134Y220980D01*
X318123Y221030D01*
X318121Y221081D01*
X318103Y221113D01*
X318095Y221149D01*
X318062Y221188D01*
X318038Y221233D01*
X318008Y221254D01*
X317985Y221282D01*
X317938Y221303D01*
X317896Y221333D01*
X317854Y221341D01*
X317826Y221353D01*
X317796Y221352D01*
X317754Y221360D01*
X306070Y221360D01*
X306020Y221349D01*
X305969Y221347D01*
X305937Y221329D01*
X305901Y221321D01*
X305862Y221288D01*
X305817Y221264D01*
X305796Y221234D01*
X305768Y221211D01*
X305747Y221164D01*
X305717Y221122D01*
X305709Y221080D01*
X305697Y221052D01*
X305698Y221022D01*
X305690Y220980D01*
X305690Y204628D01*
X296911Y195849D01*
X296871Y195784D01*
X296827Y195722D01*
X296825Y195710D01*
X296820Y195702D01*
X296816Y195665D01*
X296800Y195580D01*
X296800Y182880D01*
X296811Y182830D01*
X296813Y182779D01*
X296831Y182747D01*
X296839Y182711D01*
X296872Y182672D01*
X296896Y182627D01*
X296926Y182606D01*
X296949Y182578D01*
X296996Y182557D01*
X297038Y182527D01*
X297080Y182519D01*
X297108Y182507D01*
X297138Y182508D01*
X297180Y182500D01*
X328930Y182500D01*
X328980Y182511D01*
G37*
G36*
X289610Y201815D02*
X289610Y201815D01*
X289661Y201817D01*
X289693Y201835D01*
X289729Y201843D01*
X289768Y201876D01*
X289813Y201900D01*
X289834Y201930D01*
X289862Y201953D01*
X289883Y202000D01*
X289913Y202042D01*
X289921Y202084D01*
X289933Y202112D01*
X289932Y202142D01*
X289940Y202184D01*
X289940Y223266D01*
X289929Y223316D01*
X289927Y223367D01*
X289909Y223399D01*
X289901Y223435D01*
X289868Y223474D01*
X289844Y223519D01*
X289814Y223540D01*
X289791Y223568D01*
X289744Y223589D01*
X289702Y223619D01*
X289660Y223627D01*
X289632Y223639D01*
X289602Y223638D01*
X289560Y223646D01*
X259080Y223646D01*
X259030Y223635D01*
X258979Y223633D01*
X258947Y223615D01*
X258911Y223607D01*
X258872Y223574D01*
X258827Y223550D01*
X258806Y223520D01*
X258778Y223497D01*
X258757Y223450D01*
X258727Y223408D01*
X258719Y223366D01*
X258707Y223338D01*
X258708Y223308D01*
X258700Y223266D01*
X258700Y202184D01*
X258711Y202134D01*
X258713Y202083D01*
X258731Y202051D01*
X258739Y202015D01*
X258772Y201976D01*
X258796Y201931D01*
X258826Y201910D01*
X258849Y201882D01*
X258896Y201861D01*
X258938Y201831D01*
X258980Y201823D01*
X259008Y201811D01*
X259038Y201812D01*
X259080Y201804D01*
X289560Y201804D01*
X289610Y201815D01*
G37*
%LPC*%
G36*
X567406Y356959D02*
X567406Y356959D01*
X562613Y358945D01*
X558945Y362613D01*
X556959Y367406D01*
X556959Y372594D01*
X558945Y377387D01*
X562613Y381055D01*
X567406Y383041D01*
X572594Y383041D01*
X577387Y381055D01*
X581055Y377387D01*
X583041Y372594D01*
X583041Y367406D01*
X581055Y362613D01*
X577387Y358945D01*
X572594Y356959D01*
X567406Y356959D01*
G37*
%LPD*%
%LPC*%
G36*
X27406Y356959D02*
X27406Y356959D01*
X22613Y358945D01*
X18945Y362613D01*
X16959Y367406D01*
X16959Y372594D01*
X18945Y377387D01*
X22613Y381055D01*
X27406Y383041D01*
X32594Y383041D01*
X37387Y381055D01*
X41055Y377387D01*
X43041Y372594D01*
X43041Y367406D01*
X41055Y362613D01*
X37387Y358945D01*
X32594Y356959D01*
X27406Y356959D01*
G37*
%LPD*%
%LPC*%
G36*
X567406Y16959D02*
X567406Y16959D01*
X562613Y18945D01*
X558945Y22613D01*
X556959Y27406D01*
X556959Y32594D01*
X558945Y37387D01*
X562613Y41055D01*
X567406Y43041D01*
X572594Y43041D01*
X577387Y41055D01*
X581055Y37387D01*
X583041Y32594D01*
X583041Y27406D01*
X581055Y22613D01*
X577387Y18945D01*
X572594Y16959D01*
X567406Y16959D01*
G37*
%LPD*%
%LPC*%
G36*
X27903Y189459D02*
X27903Y189459D01*
X24029Y191064D01*
X21064Y194029D01*
X19459Y197903D01*
X19459Y202097D01*
X21064Y205971D01*
X24029Y208936D01*
X27903Y210541D01*
X32097Y210541D01*
X35971Y208936D01*
X38936Y205971D01*
X40541Y202097D01*
X40541Y197903D01*
X38936Y194029D01*
X35971Y191064D01*
X32097Y189459D01*
X27903Y189459D01*
G37*
%LPD*%
D10*
X150000Y145160D03*
D11*
X245762Y292656D03*
X245762Y320656D03*
D12*
X387178Y208978D03*
X404178Y208978D03*
X437122Y188229D03*
X420122Y188229D03*
D13*
X436750Y163820D03*
X436750Y146820D03*
D12*
X303340Y189400D03*
X286340Y189400D03*
D13*
X480240Y248580D03*
X480240Y231580D03*
X328140Y110114D03*
X328140Y93114D03*
X287429Y110114D03*
X287429Y93114D03*
D12*
X387178Y188229D03*
X404178Y188229D03*
D13*
X352390Y93114D03*
X352390Y110114D03*
D12*
X387178Y167624D03*
X404178Y167624D03*
D11*
X498236Y270492D03*
X498236Y298492D03*
X494840Y118840D03*
X494840Y90840D03*
X469840Y118840D03*
X469840Y90840D03*
D14*
X144500Y325000D03*
X125500Y325000D03*
D13*
X259000Y176580D03*
X259000Y193580D03*
D12*
X283926Y159844D03*
X266926Y159844D03*
D13*
X160000Y208500D03*
X160000Y191500D03*
X373292Y225756D03*
X373292Y242756D03*
D10*
X315480Y131200D03*
D13*
X307785Y110114D03*
X307785Y93114D03*
D15*
X215800Y106955D03*
X215800Y85365D03*
X195080Y106955D03*
X195080Y85365D03*
X174520Y106955D03*
X174520Y85365D03*
D10*
X373934Y78953D03*
D16*
X120000Y188750D02*
X120000Y211250D01*
D17*
X60000Y210000D02*
X60000Y190000D01*
X60000Y155000D02*
X40000Y155000D01*
X40000Y245000D02*
X60000Y245000D01*
D18*
X277600Y55770D03*
D19*
X297600Y55770D03*
D20*
X377410Y295560D03*
X432910Y295560D03*
D10*
X385080Y352080D03*
D21*
X209900Y184350D03*
X203300Y184350D03*
X196700Y184350D03*
X190100Y184350D03*
D22*
X200000Y164425D03*
D23*
X190100Y154500D03*
X196700Y154500D03*
X203300Y154500D03*
X209900Y154500D03*
D21*
X190100Y220650D03*
X196700Y220650D03*
X203300Y220650D03*
X209900Y220650D03*
D22*
X200000Y240575D03*
D23*
X209900Y250500D03*
X203300Y250500D03*
X196700Y250500D03*
X190100Y250500D03*
D21*
X525140Y214750D03*
X518540Y214750D03*
X511940Y214750D03*
X505340Y214750D03*
D22*
X515240Y194825D03*
D23*
X505340Y184900D03*
X511940Y184900D03*
X518540Y184900D03*
X525140Y184900D03*
D24*
X327700Y246430D03*
X327700Y259130D03*
X327700Y271830D03*
X327700Y284530D03*
D25*
X271340Y284530D03*
X271340Y271830D03*
X271340Y259130D03*
X271340Y246430D03*
D26*
X290590Y265480D03*
D24*
X272140Y354450D03*
X272140Y341750D03*
X272140Y329050D03*
X272140Y316350D03*
D25*
X328500Y316350D03*
X328500Y329050D03*
X328500Y341750D03*
X328500Y354450D03*
D26*
X309250Y335400D03*
D27*
X235000Y179160D03*
X235000Y201160D03*
D28*
X309568Y212686D03*
X281128Y212686D03*
D12*
X480880Y197260D03*
X480880Y214260D03*
X501002Y248580D03*
X501002Y231580D03*
X267074Y93114D03*
X267074Y110114D03*
X352136Y64649D03*
X352136Y47649D03*
X330000Y47649D03*
X330000Y64649D03*
D13*
X136814Y125736D03*
X153814Y125736D03*
X136560Y105228D03*
X153560Y105228D03*
X136560Y84720D03*
X153560Y84720D03*
D12*
X373932Y64649D03*
X373932Y47649D03*
D27*
X460240Y166320D03*
X460240Y144320D03*
D12*
X395728Y64649D03*
X395728Y47649D03*
X418253Y64649D03*
X418253Y47649D03*
X373932Y110114D03*
X373932Y93114D03*
X395728Y110114D03*
X395728Y93114D03*
X418253Y110114D03*
X418253Y93114D03*
D29*
X150000Y270780D03*
X150000Y299220D03*
X125000Y270780D03*
X125000Y299220D03*
D12*
X160000Y224500D03*
X160000Y241500D03*
X160000Y176500D03*
X160000Y159500D03*
X330652Y208606D03*
X330652Y225606D03*
X443049Y110114D03*
X443049Y93114D03*
X443049Y64649D03*
X443049Y47649D03*
D30*
X320170Y177900D03*
X320170Y172900D03*
X320170Y167900D03*
X320170Y162900D03*
X320170Y157900D03*
X320170Y152900D03*
D31*
X327417Y145650D03*
X332418Y145650D03*
X337419Y145650D03*
X342421Y145650D03*
X347422Y145650D03*
X352423Y145650D03*
D30*
X359670Y152900D03*
X359670Y157900D03*
X359670Y162900D03*
X359670Y167900D03*
X359670Y172900D03*
X359670Y177900D03*
D31*
X352423Y185150D03*
X347422Y185150D03*
X342421Y185150D03*
X337419Y185150D03*
X332418Y185150D03*
X327417Y185150D03*
D32*
X339920Y165400D03*
D33*
X332046Y157526D03*
X332046Y165400D03*
X332046Y173274D03*
X339920Y157526D03*
X339920Y165400D03*
X339920Y173274D03*
X347794Y157526D03*
X347794Y165400D03*
X347794Y173274D03*
D10*
X443260Y78953D03*
D34*
X373250Y199910D03*
X373250Y213910D03*
D35*
X557808Y90254D03*
D36*
X557808Y140254D03*
D37*
X59500Y85000D03*
X59500Y315000D03*
D12*
X404178Y144909D03*
X387178Y144909D03*
X442220Y127130D03*
X425220Y127130D03*
D35*
X557808Y265254D03*
D36*
X557808Y315254D03*
D38*
X559205Y186524D03*
X559205Y220334D03*
X525000Y30000D03*
X525000Y370000D03*
D18*
X132880Y55770D03*
D19*
X152880Y55770D03*
X172880Y55770D03*
X192880Y55770D03*
X212880Y55770D03*
X232880Y55770D03*
D39*
X247650Y101600D03*
X247650Y86360D03*
D40*
X40000Y110000D03*
X60000Y110000D03*
X80000Y110000D03*
X40000Y60000D03*
X60000Y60000D03*
X80000Y60000D03*
X122460Y125000D03*
X122460Y105000D03*
X122460Y85000D03*
X468440Y71120D03*
X478680Y71120D03*
X488920Y71120D03*
X589280Y101007D03*
X589280Y50800D03*
X548640Y12446D03*
X493889Y12446D03*
X439138Y12446D03*
X384387Y12446D03*
X329635Y12446D03*
X274884Y12446D03*
X220133Y12446D03*
X165382Y12446D03*
X110631Y12446D03*
X52832Y12446D03*
X9906Y51562D03*
X9948Y104140D03*
X9991Y152400D03*
X10033Y200660D03*
X10075Y248920D03*
X10118Y297180D03*
X10160Y350520D03*
X50800Y388366D03*
X113094Y388398D03*
X175387Y388430D03*
X237681Y388461D03*
X299974Y388493D03*
X362268Y388525D03*
X424561Y388557D03*
X486855Y388588D03*
X549148Y388620D03*
X589280Y352044D03*
X589280Y301837D03*
X589280Y251629D03*
X589280Y201422D03*
X589280Y151215D03*
X250920Y340360D03*
X250920Y350520D03*
X250920Y360680D03*
X240760Y360680D03*
X240760Y350520D03*
X240760Y340360D03*
X223520Y320040D03*
X223520Y330200D03*
X487680Y320040D03*
X497840Y320040D03*
X508000Y320040D03*
X40000Y340000D03*
X60000Y340000D03*
X80000Y340000D03*
X40000Y290000D03*
X60000Y290000D03*
X80000Y290000D03*
X499000Y71000D03*
X195000Y207000D03*
X205000Y207000D03*
X205000Y198000D03*
X195000Y198000D03*
X265716Y217932D03*
X265716Y207518D03*
D41*
X160000Y191500D02*
X160000Y176500D01*
X174190Y184350D02*
X190100Y184350D01*
X174190Y184350D02*
X167640Y177800D01*
X161300Y177800D01*
X160000Y176500D01*
X190096Y179107D02*
X193108Y176095D01*
X190096Y184346D02*
X190100Y184350D01*
X190096Y184346D02*
X190096Y179107D01*
X193108Y176095D02*
X214000Y176095D01*
X218440Y180535D01*
X218440Y207030D02*
X209900Y215570D01*
X209900Y220650D01*
X218440Y207030D02*
X218440Y180535D01*
X160000Y241500D02*
X147320Y228820D01*
X147320Y203200D01*
X159020Y191500D01*
X160000Y191500D01*
X160000Y176500D02*
X147320Y163820D01*
X147320Y147840D02*
X150000Y145160D01*
X147320Y147840D02*
X147320Y163820D01*
X308816Y167900D02*
X320170Y167900D01*
X308816Y167900D02*
X286886Y145970D01*
X253920Y145970D02*
X238506Y130556D01*
X253920Y145970D02*
X286886Y145970D01*
X238506Y130556D02*
X184404Y130556D01*
X160000Y154960D01*
X160000Y159500D01*
X241000Y183636D02*
X241000Y187706D01*
X241000Y183636D02*
X236524Y179160D01*
X235000Y179160D01*
X259000Y177088D02*
X259000Y176580D01*
X259000Y177088D02*
X248382Y187706D01*
X241000Y187706D01*
D40*
X193040Y142240D03*
X203200Y142240D03*
X213360Y142240D03*
X228600Y152400D03*
X228600Y162560D03*
D41*
X283926Y159844D02*
X283926Y172900D01*
X262680Y172900D01*
X259000Y176580D01*
X283926Y172900D02*
X320170Y172900D01*
X320170Y177900D02*
X273664Y177900D01*
X259000Y192564D01*
X259000Y193580D01*
X241096Y195064D02*
X235000Y201160D01*
X241096Y195064D02*
X241096Y192024D01*
X257444Y192024D02*
X259000Y193580D01*
X257444Y192024D02*
X241096Y192024D01*
D40*
X250952Y273558D03*
X250952Y263398D03*
X250952Y253238D03*
X240792Y253238D03*
X240792Y263398D03*
X240792Y273558D03*
X467360Y281686D03*
X467360Y271526D03*
X467360Y261366D03*
X477520Y261366D03*
X477520Y271526D03*
X477520Y281686D03*
X523240Y228600D03*
X533400Y228600D03*
X543560Y228600D03*
X543560Y238760D03*
X533400Y238760D03*
X523240Y238760D03*
D41*
X316500Y230092D02*
X312928Y233664D01*
X312928Y294866D01*
X302112Y305682D01*
X276728Y305682D01*
X272140Y310270D01*
X272140Y316350D01*
D40*
X316500Y230092D03*
X354838Y202692D03*
D41*
X352423Y200277D01*
X352423Y185150D01*
X327700Y284530D02*
X325398Y284530D01*
X317500Y276632D01*
X317500Y241836D01*
X325134Y234202D01*
X342339Y185232D02*
X342421Y185150D01*
X342339Y185232D02*
X342339Y207628D01*
X348996Y214285D02*
X348996Y229108D01*
X348996Y214285D02*
X342339Y207628D01*
X343902Y234202D02*
X325134Y234202D01*
X343902Y234202D02*
X348996Y229108D01*
D40*
X345220Y352520D03*
X345220Y330867D03*
X345220Y320040D03*
X355705Y320040D03*
X355705Y330867D03*
X355705Y352520D03*
X345220Y341693D03*
X355705Y341693D03*
D41*
X347422Y206604D02*
X347422Y185150D01*
X347422Y206604D02*
X353314Y212496D01*
X353314Y246634D01*
X327904Y246634D01*
X327700Y246430D01*
X373250Y199910D02*
X375824Y199910D01*
X384892Y208978D02*
X387178Y208978D01*
X384892Y208978D02*
X375824Y199910D01*
X373250Y199910D02*
X371520Y199910D01*
X359670Y188060D01*
X359670Y177900D01*
X286340Y189400D02*
X275760Y189400D01*
X274320Y187960D01*
D40*
X274320Y187960D03*
D41*
X266926Y159844D02*
X256716Y159844D01*
X254000Y162560D01*
D40*
X254000Y162560D03*
D41*
X347794Y172900D02*
X359670Y172900D01*
X347794Y172900D02*
X347794Y173274D01*
D40*
X287020Y80010D03*
X307848Y80010D03*
X328168Y80010D03*
X357092Y125460D03*
X366744Y125460D03*
D41*
X434278Y56420D02*
X443049Y47649D01*
X434278Y56420D02*
X430784Y56420D01*
D40*
X430784Y56420D03*
X418830Y175768D03*
X418830Y165862D03*
X392000Y126000D03*
X371300Y144909D03*
D41*
X387178Y144909D01*
D40*
X371856Y187706D03*
D41*
X393636Y198436D02*
X404178Y208978D01*
X393636Y198436D02*
X382754Y198436D01*
X372024Y187706D02*
X371856Y187706D01*
X372024Y187706D02*
X382754Y198436D01*
X330706Y225552D02*
X330652Y225606D01*
X330706Y225552D02*
X342035Y225552D01*
D40*
X342035Y225552D03*
X361442Y225298D03*
D41*
X372834Y225298D01*
X373292Y225756D01*
X373292Y213952D01*
X373250Y213910D01*
X337419Y201839D02*
X330652Y208606D01*
X337419Y201839D02*
X337419Y185150D01*
X454144Y160224D02*
X460240Y166320D01*
X454144Y160224D02*
X454144Y157734D01*
X442836Y157734D01*
X436750Y163820D01*
X430830Y157900D02*
X359670Y157900D01*
X430830Y157900D02*
X436750Y163820D01*
X454144Y153162D02*
X454144Y150416D01*
X460240Y144320D01*
X454144Y153162D02*
X443092Y153162D01*
X436750Y146820D01*
X401510Y152900D02*
X359670Y152900D01*
X401510Y152900D02*
X430670Y152900D01*
X436750Y146820D01*
D40*
X538480Y193040D03*
X538480Y182880D03*
X538480Y172720D03*
X477520Y137160D03*
X487680Y137160D03*
X497840Y137160D03*
X505000Y170000D03*
X515000Y170000D03*
X525000Y170000D03*
D41*
X404178Y144909D02*
X401510Y147576D01*
X401510Y152900D01*
D40*
X477520Y147320D03*
X487680Y147320D03*
X497840Y147320D03*
D41*
X370022Y162900D02*
X359670Y162900D01*
X370022Y162900D02*
X372110Y164988D01*
D40*
X372110Y164988D03*
D42*
X395732Y78953D03*
D41*
X372110Y164988D02*
X374746Y167624D01*
X387178Y167624D01*
X395732Y78953D02*
X395732Y64653D01*
X395728Y64649D01*
X395728Y78957D02*
X395728Y93114D01*
X395728Y78957D02*
X395732Y78953D01*
X364656Y167900D02*
X359670Y167900D01*
X371856Y175100D02*
X371856Y175608D01*
X371856Y175100D02*
X364656Y167900D01*
D40*
X371856Y175608D03*
D42*
X418164Y78953D03*
D41*
X374650Y177910D02*
X384969Y188229D01*
X374650Y177910D02*
X374650Y177894D01*
X372364Y175608D01*
X371856Y175608D01*
X384969Y188229D02*
X387178Y188229D01*
X418253Y81280D02*
X418253Y64649D01*
X418253Y81280D02*
X418253Y93114D01*
X418253Y81280D02*
X418164Y81191D01*
X418164Y78953D01*
X362401Y135672D02*
X352423Y145650D01*
X362401Y135672D02*
X401328Y135672D01*
X441819Y93114D02*
X443049Y93114D01*
X441819Y93114D02*
X429341Y105592D01*
X429341Y115277D01*
X443049Y78742D02*
X443049Y64649D01*
X443049Y78742D02*
X443260Y78953D01*
X443049Y79164D02*
X443049Y93114D01*
X443049Y79164D02*
X443260Y78953D01*
X410000Y127000D02*
X401328Y135672D01*
X410000Y127000D02*
X425090Y127000D01*
X425220Y127130D01*
X425220Y119398D01*
X429341Y115277D01*
X327417Y185150D02*
X321310Y185150D01*
X317257Y185150D01*
X313007Y189400D01*
X309568Y202999D02*
X309568Y212686D01*
X313007Y189400D02*
X303340Y189400D01*
X321310Y191257D02*
X321310Y185150D01*
X321310Y191257D02*
X309568Y202999D01*
D40*
X330454Y196742D03*
D41*
X332373Y185195D02*
X332418Y185150D01*
X332373Y194823D02*
X330454Y196742D01*
X332373Y194823D02*
X332373Y185195D01*
D40*
X480568Y185928D03*
D41*
X480568Y196948D02*
X480880Y197260D01*
X480568Y196948D02*
X480568Y185928D01*
X320170Y152900D02*
X316106Y152900D01*
X287429Y124223D01*
X287429Y110114D01*
X267074Y110114D01*
X319797Y145650D02*
X327417Y145650D01*
X319797Y145650D02*
X315480Y141333D01*
X315480Y131200D01*
X315480Y128152D01*
X307785Y120457D01*
X307785Y110114D01*
X327388Y110114D02*
X328140Y110114D01*
X327388Y110114D02*
X327077Y109803D01*
X342421Y125147D02*
X342421Y145650D01*
X342421Y125147D02*
X327077Y109803D01*
X272348Y37230D02*
X253980Y55601D01*
X272348Y37230D02*
X363513Y37230D01*
X338582Y99672D02*
X328140Y110114D01*
X338582Y78203D02*
X352136Y64649D01*
X338582Y78203D02*
X338582Y99672D01*
X373932Y47649D02*
X395728Y47649D01*
X418253Y47649D01*
X373932Y47649D02*
X363513Y37230D01*
X352136Y64649D02*
X352487Y65000D01*
X354000Y65000D01*
X371351Y47649D01*
X373932Y47649D01*
X253980Y55601D02*
X233049Y55601D01*
X232880Y55770D01*
X247650Y70540D01*
X247650Y86360D01*
X330000Y47649D02*
X352136Y47649D01*
X330000Y47649D02*
X323899Y41548D01*
X291822Y41548D01*
X277600Y55770D02*
X267074Y66296D01*
X267074Y93114D01*
X277600Y55770D02*
X291822Y41548D01*
X352390Y93114D02*
X352449Y93704D01*
X352390Y93114D02*
X373932Y93114D01*
X347422Y123902D02*
X347422Y145650D01*
X340360Y105793D02*
X352449Y93704D01*
X340360Y116840D02*
X347422Y123902D01*
X340360Y116840D02*
X340360Y105793D01*
X373932Y78951D02*
X373932Y64649D01*
X373932Y78951D02*
X373934Y78953D01*
X373932Y78951D02*
X373932Y93114D01*
D40*
X233680Y114300D03*
D41*
X256021Y136638D02*
X284749Y136638D01*
X233683Y114300D02*
X233680Y114300D01*
X233683Y114300D02*
X256021Y136638D01*
X320087Y162983D02*
X320170Y162900D01*
X320087Y162983D02*
X311094Y162983D01*
X284749Y136638D01*
X229870Y72760D02*
X212880Y55770D01*
X229870Y72760D02*
X229870Y87630D01*
X243840Y101600D01*
X247650Y101600D01*
X278918Y123430D02*
X313388Y157900D01*
X278918Y123430D02*
X254000Y123430D01*
X313388Y157900D02*
X320170Y157900D01*
X215935Y85365D02*
X215800Y85365D01*
X215935Y85365D02*
X254000Y123430D01*
X215800Y85365D02*
X215800Y74830D01*
X196740Y55770D02*
X192880Y55770D01*
X196740Y55770D02*
X215800Y74830D01*
D40*
X328930Y123698D03*
D41*
X332232Y123698D02*
X337419Y128885D01*
X332232Y123698D02*
X328930Y123698D01*
X337419Y128885D02*
X337419Y145650D01*
X195080Y85365D02*
X195080Y75700D01*
X175150Y55770D02*
X172880Y55770D01*
X175150Y55770D02*
X195080Y75700D01*
X332418Y137346D02*
X332418Y145650D01*
X332418Y137346D02*
X328676Y133604D01*
D40*
X328676Y133604D03*
D41*
X174520Y85365D02*
X174520Y75460D01*
X154830Y55770D02*
X152880Y55770D01*
X154830Y55770D02*
X174520Y75460D01*
X153814Y125736D02*
X197019Y125736D01*
X215800Y106955D01*
X195080Y106955D02*
X183650Y118385D01*
X167225Y118385D01*
X154068Y105228D01*
X153560Y105228D01*
X154100Y84720D02*
X174520Y105140D01*
X154100Y84720D02*
X153560Y84720D01*
X174520Y105140D02*
X174520Y106955D01*
M02*
