G04 EAGLE Gerber RS-274X export*
G75*
%MOMM*%
%FSLAX34Y34*%
%LPD*%
%INSoldermask Top*%
%IPPOS*%
%AMOC8*
5,1,8,0,0,1.08239X$1,22.5*%
G01*
%ADD10C,2.252400*%
%ADD11R,6.000000X7.000000*%
%ADD12C,1.300000*%
%ADD13C,1.422400*%
%ADD14R,1.952400X1.752400*%
%ADD15R,1.252400X1.152400*%
%ADD16R,1.152400X1.252400*%
%ADD17R,1.452400X1.652400*%
%ADD18R,1.422400X1.422400*%
%ADD19C,2.402400*%
%ADD20C,2.152400*%
%ADD21C,1.752400*%
%ADD22R,1.574800X1.574800*%
%ADD23P,1.704548X8X112.500000*%
%ADD24R,2.002400X3.652400*%
%ADD25R,0.558800X1.143000*%
%ADD26R,2.387600X1.879600*%
%ADD27R,0.558800X0.914400*%
%ADD28R,1.524400X0.862400*%
%ADD29R,1.332400X0.862400*%
%ADD30R,4.002400X4.672400*%
%ADD31R,1.652400X1.552400*%
%ADD32R,1.752400X1.955400*%
%ADD33R,1.955400X1.752400*%
%ADD34C,1.062000*%
%ADD35R,0.852400X0.752400*%
%ADD36R,1.962000X1.962000*%
%ADD37C,1.962000*%
%ADD38P,2.914227X8X22.500000*%
%ADD39C,1.782000*%
%ADD40R,1.041400X1.422400*%
%ADD41C,0.960400*%

G36*
X352807Y152390D02*
X352807Y152390D01*
X352809Y152389D01*
X352852Y152409D01*
X352896Y152427D01*
X352896Y152429D01*
X352898Y152430D01*
X352931Y152515D01*
X352931Y178285D01*
X352930Y178287D01*
X352931Y178289D01*
X352911Y178332D01*
X352893Y178376D01*
X352891Y178376D01*
X352890Y178378D01*
X352805Y178411D01*
X327035Y178411D01*
X327033Y178410D01*
X327031Y178411D01*
X326988Y178391D01*
X326944Y178373D01*
X326944Y178371D01*
X326942Y178370D01*
X326909Y178285D01*
X326909Y152515D01*
X326910Y152513D01*
X326909Y152511D01*
X326929Y152468D01*
X326947Y152424D01*
X326949Y152424D01*
X326950Y152422D01*
X327035Y152389D01*
X352805Y152389D01*
X352807Y152390D01*
G37*
G36*
X325118Y175679D02*
X325118Y175679D01*
X325120Y175678D01*
X325163Y175698D01*
X325207Y175716D01*
X325207Y175718D01*
X325209Y175719D01*
X325242Y175804D01*
X325242Y179996D01*
X325241Y179998D01*
X325242Y180000D01*
X325222Y180043D01*
X325204Y180087D01*
X325202Y180087D01*
X325201Y180089D01*
X325116Y180122D01*
X315224Y180122D01*
X315222Y180121D01*
X315220Y180122D01*
X315177Y180102D01*
X315133Y180084D01*
X315133Y180082D01*
X315131Y180081D01*
X315098Y179996D01*
X315098Y175804D01*
X315099Y175802D01*
X315098Y175800D01*
X315118Y175757D01*
X315136Y175713D01*
X315138Y175713D01*
X315139Y175711D01*
X315224Y175678D01*
X325116Y175678D01*
X325118Y175679D01*
G37*
G36*
X325118Y155679D02*
X325118Y155679D01*
X325120Y155678D01*
X325163Y155698D01*
X325207Y155716D01*
X325207Y155718D01*
X325209Y155719D01*
X325242Y155804D01*
X325242Y159996D01*
X325241Y159998D01*
X325242Y160000D01*
X325222Y160043D01*
X325204Y160087D01*
X325202Y160087D01*
X325201Y160089D01*
X325116Y160122D01*
X315224Y160122D01*
X315222Y160121D01*
X315220Y160122D01*
X315177Y160102D01*
X315133Y160084D01*
X315133Y160082D01*
X315131Y160081D01*
X315098Y159996D01*
X315098Y155804D01*
X315099Y155802D01*
X315098Y155800D01*
X315118Y155757D01*
X315136Y155713D01*
X315138Y155713D01*
X315139Y155711D01*
X315224Y155678D01*
X325116Y155678D01*
X325118Y155679D01*
G37*
G36*
X364618Y150679D02*
X364618Y150679D01*
X364620Y150678D01*
X364663Y150698D01*
X364707Y150716D01*
X364707Y150718D01*
X364709Y150719D01*
X364742Y150804D01*
X364742Y154996D01*
X364741Y154998D01*
X364742Y155000D01*
X364722Y155043D01*
X364704Y155087D01*
X364702Y155087D01*
X364701Y155089D01*
X364616Y155122D01*
X354724Y155122D01*
X354722Y155121D01*
X354720Y155122D01*
X354677Y155102D01*
X354633Y155084D01*
X354633Y155082D01*
X354631Y155081D01*
X354598Y154996D01*
X354598Y150804D01*
X354599Y150802D01*
X354598Y150800D01*
X354618Y150757D01*
X354636Y150713D01*
X354638Y150713D01*
X354639Y150711D01*
X354724Y150678D01*
X364616Y150678D01*
X364618Y150679D01*
G37*
G36*
X325118Y150679D02*
X325118Y150679D01*
X325120Y150678D01*
X325163Y150698D01*
X325207Y150716D01*
X325207Y150718D01*
X325209Y150719D01*
X325242Y150804D01*
X325242Y154996D01*
X325241Y154998D01*
X325242Y155000D01*
X325222Y155043D01*
X325204Y155087D01*
X325202Y155087D01*
X325201Y155089D01*
X325116Y155122D01*
X315224Y155122D01*
X315222Y155121D01*
X315220Y155122D01*
X315177Y155102D01*
X315133Y155084D01*
X315133Y155082D01*
X315131Y155081D01*
X315098Y154996D01*
X315098Y150804D01*
X315099Y150802D01*
X315098Y150800D01*
X315118Y150757D01*
X315136Y150713D01*
X315138Y150713D01*
X315139Y150711D01*
X315224Y150678D01*
X325116Y150678D01*
X325118Y150679D01*
G37*
G36*
X364618Y170679D02*
X364618Y170679D01*
X364620Y170678D01*
X364663Y170698D01*
X364707Y170716D01*
X364707Y170718D01*
X364709Y170719D01*
X364742Y170804D01*
X364742Y174996D01*
X364741Y174998D01*
X364742Y175000D01*
X364722Y175043D01*
X364704Y175087D01*
X364702Y175087D01*
X364701Y175089D01*
X364616Y175122D01*
X354724Y175122D01*
X354722Y175121D01*
X354720Y175122D01*
X354677Y175102D01*
X354633Y175084D01*
X354633Y175082D01*
X354631Y175081D01*
X354598Y174996D01*
X354598Y170804D01*
X354599Y170802D01*
X354598Y170800D01*
X354618Y170757D01*
X354636Y170713D01*
X354638Y170713D01*
X354639Y170711D01*
X354724Y170678D01*
X364616Y170678D01*
X364618Y170679D01*
G37*
G36*
X364618Y175679D02*
X364618Y175679D01*
X364620Y175678D01*
X364663Y175698D01*
X364707Y175716D01*
X364707Y175718D01*
X364709Y175719D01*
X364742Y175804D01*
X364742Y179996D01*
X364741Y179998D01*
X364742Y180000D01*
X364722Y180043D01*
X364704Y180087D01*
X364702Y180087D01*
X364701Y180089D01*
X364616Y180122D01*
X354724Y180122D01*
X354722Y180121D01*
X354720Y180122D01*
X354677Y180102D01*
X354633Y180084D01*
X354633Y180082D01*
X354631Y180081D01*
X354598Y179996D01*
X354598Y175804D01*
X354599Y175802D01*
X354598Y175800D01*
X354618Y175757D01*
X354636Y175713D01*
X354638Y175713D01*
X354639Y175711D01*
X354724Y175678D01*
X364616Y175678D01*
X364618Y175679D01*
G37*
G36*
X354521Y180079D02*
X354521Y180079D01*
X354523Y180078D01*
X354566Y180098D01*
X354610Y180116D01*
X354611Y180118D01*
X354613Y180119D01*
X354645Y180204D01*
X354645Y190096D01*
X354645Y190098D01*
X354645Y190100D01*
X354625Y190143D01*
X354607Y190187D01*
X354605Y190187D01*
X354604Y190189D01*
X354519Y190222D01*
X350327Y190222D01*
X350325Y190221D01*
X350323Y190222D01*
X350280Y190202D01*
X350237Y190184D01*
X350236Y190182D01*
X350234Y190181D01*
X350201Y190096D01*
X350201Y180204D01*
X350202Y180202D01*
X350201Y180200D01*
X350221Y180157D01*
X350239Y180113D01*
X350241Y180113D01*
X350242Y180111D01*
X350327Y180078D01*
X354519Y180078D01*
X354521Y180079D01*
G37*
G36*
X344519Y180079D02*
X344519Y180079D01*
X344521Y180078D01*
X344564Y180098D01*
X344607Y180116D01*
X344608Y180118D01*
X344610Y180119D01*
X344643Y180204D01*
X344643Y190096D01*
X344642Y190098D01*
X344643Y190100D01*
X344623Y190143D01*
X344604Y190187D01*
X344602Y190187D01*
X344602Y190189D01*
X344517Y190222D01*
X340325Y190222D01*
X340323Y190221D01*
X340321Y190222D01*
X340278Y190202D01*
X340234Y190184D01*
X340233Y190182D01*
X340231Y190181D01*
X340198Y190096D01*
X340198Y180204D01*
X340199Y180202D01*
X340199Y180200D01*
X340218Y180157D01*
X340237Y180113D01*
X340239Y180113D01*
X340240Y180111D01*
X340325Y180078D01*
X344517Y180078D01*
X344519Y180079D01*
G37*
G36*
X339517Y180079D02*
X339517Y180079D01*
X339519Y180078D01*
X339562Y180098D01*
X339606Y180116D01*
X339607Y180118D01*
X339609Y180119D01*
X339642Y180204D01*
X339642Y190096D01*
X339641Y190098D01*
X339642Y190100D01*
X339622Y190143D01*
X339603Y190187D01*
X339601Y190187D01*
X339600Y190189D01*
X339515Y190222D01*
X335323Y190222D01*
X335321Y190221D01*
X335319Y190222D01*
X335276Y190202D01*
X335233Y190184D01*
X335232Y190182D01*
X335230Y190181D01*
X335197Y190096D01*
X335197Y180204D01*
X335198Y180202D01*
X335197Y180200D01*
X335217Y180157D01*
X335236Y180113D01*
X335238Y180113D01*
X335239Y180111D01*
X335323Y180078D01*
X339515Y180078D01*
X339517Y180079D01*
G37*
G36*
X349520Y180079D02*
X349520Y180079D01*
X349522Y180078D01*
X349565Y180098D01*
X349609Y180116D01*
X349609Y180118D01*
X349611Y180119D01*
X349644Y180204D01*
X349644Y190096D01*
X349643Y190098D01*
X349644Y190100D01*
X349624Y190143D01*
X349606Y190187D01*
X349604Y190187D01*
X349603Y190189D01*
X349518Y190222D01*
X345326Y190222D01*
X345324Y190221D01*
X345322Y190222D01*
X345279Y190202D01*
X345235Y190184D01*
X345234Y190182D01*
X345233Y190181D01*
X345200Y190096D01*
X345200Y180204D01*
X345201Y180202D01*
X345200Y180200D01*
X345220Y180157D01*
X345238Y180113D01*
X345240Y180113D01*
X345241Y180111D01*
X345326Y180078D01*
X349518Y180078D01*
X349520Y180079D01*
G37*
G36*
X329515Y180079D02*
X329515Y180079D01*
X329517Y180078D01*
X329560Y180098D01*
X329604Y180116D01*
X329604Y180118D01*
X329606Y180119D01*
X329639Y180204D01*
X329639Y190096D01*
X329638Y190098D01*
X329639Y190100D01*
X329619Y190143D01*
X329601Y190187D01*
X329599Y190187D01*
X329598Y190189D01*
X329513Y190222D01*
X325321Y190222D01*
X325319Y190221D01*
X325317Y190222D01*
X325274Y190202D01*
X325230Y190184D01*
X325229Y190182D01*
X325227Y190181D01*
X325195Y190096D01*
X325195Y180204D01*
X325196Y180202D01*
X325195Y180200D01*
X325215Y180157D01*
X325233Y180113D01*
X325235Y180113D01*
X325236Y180111D01*
X325321Y180078D01*
X329513Y180078D01*
X329515Y180079D01*
G37*
G36*
X334516Y180079D02*
X334516Y180079D01*
X334518Y180078D01*
X334561Y180098D01*
X334605Y180116D01*
X334606Y180118D01*
X334608Y180119D01*
X334640Y180204D01*
X334640Y190096D01*
X334639Y190098D01*
X334640Y190100D01*
X334620Y190143D01*
X334602Y190187D01*
X334600Y190187D01*
X334599Y190189D01*
X334514Y190222D01*
X330322Y190222D01*
X330320Y190221D01*
X330318Y190222D01*
X330275Y190202D01*
X330231Y190184D01*
X330231Y190182D01*
X330229Y190181D01*
X330196Y190096D01*
X330196Y180204D01*
X330197Y180202D01*
X330196Y180200D01*
X330216Y180157D01*
X330234Y180113D01*
X330236Y180113D01*
X330237Y180111D01*
X330322Y180078D01*
X334514Y180078D01*
X334516Y180079D01*
G37*
G36*
X334516Y140579D02*
X334516Y140579D01*
X334518Y140578D01*
X334561Y140598D01*
X334605Y140616D01*
X334606Y140618D01*
X334608Y140619D01*
X334640Y140704D01*
X334640Y150596D01*
X334639Y150598D01*
X334640Y150600D01*
X334620Y150643D01*
X334602Y150687D01*
X334600Y150687D01*
X334599Y150689D01*
X334514Y150722D01*
X330322Y150722D01*
X330320Y150721D01*
X330318Y150722D01*
X330275Y150702D01*
X330231Y150684D01*
X330231Y150682D01*
X330229Y150681D01*
X330196Y150596D01*
X330196Y140704D01*
X330197Y140702D01*
X330196Y140700D01*
X330216Y140657D01*
X330234Y140613D01*
X330236Y140613D01*
X330237Y140611D01*
X330322Y140578D01*
X334514Y140578D01*
X334516Y140579D01*
G37*
G36*
X325118Y170679D02*
X325118Y170679D01*
X325120Y170678D01*
X325163Y170698D01*
X325207Y170716D01*
X325207Y170718D01*
X325209Y170719D01*
X325242Y170804D01*
X325242Y174996D01*
X325241Y174998D01*
X325242Y175000D01*
X325222Y175043D01*
X325204Y175087D01*
X325202Y175087D01*
X325201Y175089D01*
X325116Y175122D01*
X315224Y175122D01*
X315222Y175121D01*
X315220Y175122D01*
X315177Y175102D01*
X315133Y175084D01*
X315133Y175082D01*
X315131Y175081D01*
X315098Y174996D01*
X315098Y170804D01*
X315099Y170802D01*
X315098Y170800D01*
X315118Y170757D01*
X315136Y170713D01*
X315138Y170713D01*
X315139Y170711D01*
X315224Y170678D01*
X325116Y170678D01*
X325118Y170679D01*
G37*
G36*
X364618Y165679D02*
X364618Y165679D01*
X364620Y165678D01*
X364663Y165698D01*
X364707Y165716D01*
X364707Y165718D01*
X364709Y165719D01*
X364742Y165804D01*
X364742Y169996D01*
X364741Y169998D01*
X364742Y170000D01*
X364722Y170043D01*
X364704Y170087D01*
X364702Y170087D01*
X364701Y170089D01*
X364616Y170122D01*
X354724Y170122D01*
X354722Y170121D01*
X354720Y170122D01*
X354677Y170102D01*
X354633Y170084D01*
X354633Y170082D01*
X354631Y170081D01*
X354598Y169996D01*
X354598Y165804D01*
X354599Y165802D01*
X354598Y165800D01*
X354618Y165757D01*
X354636Y165713D01*
X354638Y165713D01*
X354639Y165711D01*
X354724Y165678D01*
X364616Y165678D01*
X364618Y165679D01*
G37*
G36*
X325118Y165679D02*
X325118Y165679D01*
X325120Y165678D01*
X325163Y165698D01*
X325207Y165716D01*
X325207Y165718D01*
X325209Y165719D01*
X325242Y165804D01*
X325242Y169996D01*
X325241Y169998D01*
X325242Y170000D01*
X325222Y170043D01*
X325204Y170087D01*
X325202Y170087D01*
X325201Y170089D01*
X325116Y170122D01*
X315224Y170122D01*
X315222Y170121D01*
X315220Y170122D01*
X315177Y170102D01*
X315133Y170084D01*
X315133Y170082D01*
X315131Y170081D01*
X315098Y169996D01*
X315098Y165804D01*
X315099Y165802D01*
X315098Y165800D01*
X315118Y165757D01*
X315136Y165713D01*
X315138Y165713D01*
X315139Y165711D01*
X315224Y165678D01*
X325116Y165678D01*
X325118Y165679D01*
G37*
G36*
X329515Y140579D02*
X329515Y140579D01*
X329517Y140578D01*
X329560Y140598D01*
X329604Y140616D01*
X329604Y140618D01*
X329606Y140619D01*
X329639Y140704D01*
X329639Y150596D01*
X329638Y150598D01*
X329639Y150600D01*
X329619Y150643D01*
X329601Y150687D01*
X329599Y150687D01*
X329598Y150689D01*
X329513Y150722D01*
X325321Y150722D01*
X325319Y150721D01*
X325317Y150722D01*
X325274Y150702D01*
X325230Y150684D01*
X325229Y150682D01*
X325227Y150681D01*
X325195Y150596D01*
X325195Y140704D01*
X325196Y140702D01*
X325195Y140700D01*
X325215Y140657D01*
X325233Y140613D01*
X325235Y140613D01*
X325236Y140611D01*
X325321Y140578D01*
X329513Y140578D01*
X329515Y140579D01*
G37*
G36*
X325118Y160679D02*
X325118Y160679D01*
X325120Y160678D01*
X325163Y160698D01*
X325207Y160716D01*
X325207Y160718D01*
X325209Y160719D01*
X325242Y160804D01*
X325242Y164996D01*
X325241Y164998D01*
X325242Y165000D01*
X325222Y165043D01*
X325204Y165087D01*
X325202Y165087D01*
X325201Y165089D01*
X325116Y165122D01*
X315224Y165122D01*
X315222Y165121D01*
X315220Y165122D01*
X315177Y165102D01*
X315133Y165084D01*
X315133Y165082D01*
X315131Y165081D01*
X315098Y164996D01*
X315098Y160804D01*
X315099Y160802D01*
X315098Y160800D01*
X315118Y160757D01*
X315136Y160713D01*
X315138Y160713D01*
X315139Y160711D01*
X315224Y160678D01*
X325116Y160678D01*
X325118Y160679D01*
G37*
G36*
X364618Y160679D02*
X364618Y160679D01*
X364620Y160678D01*
X364663Y160698D01*
X364707Y160716D01*
X364707Y160718D01*
X364709Y160719D01*
X364742Y160804D01*
X364742Y164996D01*
X364741Y164998D01*
X364742Y165000D01*
X364722Y165043D01*
X364704Y165087D01*
X364702Y165087D01*
X364701Y165089D01*
X364616Y165122D01*
X354724Y165122D01*
X354722Y165121D01*
X354720Y165122D01*
X354677Y165102D01*
X354633Y165084D01*
X354633Y165082D01*
X354631Y165081D01*
X354598Y164996D01*
X354598Y160804D01*
X354599Y160802D01*
X354598Y160800D01*
X354618Y160757D01*
X354636Y160713D01*
X354638Y160713D01*
X354639Y160711D01*
X354724Y160678D01*
X364616Y160678D01*
X364618Y160679D01*
G37*
G36*
X364618Y155679D02*
X364618Y155679D01*
X364620Y155678D01*
X364663Y155698D01*
X364707Y155716D01*
X364707Y155718D01*
X364709Y155719D01*
X364742Y155804D01*
X364742Y159996D01*
X364741Y159998D01*
X364742Y160000D01*
X364722Y160043D01*
X364704Y160087D01*
X364702Y160087D01*
X364701Y160089D01*
X364616Y160122D01*
X354724Y160122D01*
X354722Y160121D01*
X354720Y160122D01*
X354677Y160102D01*
X354633Y160084D01*
X354633Y160082D01*
X354631Y160081D01*
X354598Y159996D01*
X354598Y155804D01*
X354599Y155802D01*
X354598Y155800D01*
X354618Y155757D01*
X354636Y155713D01*
X354638Y155713D01*
X354639Y155711D01*
X354724Y155678D01*
X364616Y155678D01*
X364618Y155679D01*
G37*
G36*
X349520Y140579D02*
X349520Y140579D01*
X349522Y140578D01*
X349565Y140598D01*
X349609Y140616D01*
X349609Y140618D01*
X349611Y140619D01*
X349644Y140704D01*
X349644Y150596D01*
X349643Y150598D01*
X349644Y150600D01*
X349624Y150643D01*
X349606Y150687D01*
X349604Y150687D01*
X349603Y150689D01*
X349518Y150722D01*
X345326Y150722D01*
X345324Y150721D01*
X345322Y150722D01*
X345279Y150702D01*
X345235Y150684D01*
X345234Y150682D01*
X345233Y150681D01*
X345200Y150596D01*
X345200Y140704D01*
X345201Y140702D01*
X345200Y140700D01*
X345220Y140657D01*
X345238Y140613D01*
X345240Y140613D01*
X345241Y140611D01*
X345326Y140578D01*
X349518Y140578D01*
X349520Y140579D01*
G37*
G36*
X344519Y140579D02*
X344519Y140579D01*
X344521Y140578D01*
X344564Y140598D01*
X344607Y140616D01*
X344608Y140618D01*
X344610Y140619D01*
X344643Y140704D01*
X344643Y150596D01*
X344642Y150598D01*
X344643Y150600D01*
X344623Y150643D01*
X344604Y150687D01*
X344602Y150687D01*
X344602Y150689D01*
X344517Y150722D01*
X340325Y150722D01*
X340323Y150721D01*
X340321Y150722D01*
X340278Y150702D01*
X340234Y150684D01*
X340233Y150682D01*
X340231Y150681D01*
X340198Y150596D01*
X340198Y140704D01*
X340199Y140702D01*
X340199Y140700D01*
X340218Y140657D01*
X340237Y140613D01*
X340239Y140613D01*
X340240Y140611D01*
X340325Y140578D01*
X344517Y140578D01*
X344519Y140579D01*
G37*
G36*
X339517Y140579D02*
X339517Y140579D01*
X339519Y140578D01*
X339562Y140598D01*
X339606Y140616D01*
X339607Y140618D01*
X339609Y140619D01*
X339642Y140704D01*
X339642Y150596D01*
X339641Y150598D01*
X339642Y150600D01*
X339622Y150643D01*
X339603Y150687D01*
X339601Y150687D01*
X339600Y150689D01*
X339515Y150722D01*
X335323Y150722D01*
X335321Y150721D01*
X335319Y150722D01*
X335276Y150702D01*
X335233Y150684D01*
X335232Y150682D01*
X335230Y150681D01*
X335197Y150596D01*
X335197Y140704D01*
X335198Y140702D01*
X335197Y140700D01*
X335217Y140657D01*
X335236Y140613D01*
X335238Y140613D01*
X335239Y140611D01*
X335323Y140578D01*
X339515Y140578D01*
X339517Y140579D01*
G37*
G36*
X354521Y140579D02*
X354521Y140579D01*
X354523Y140578D01*
X354566Y140598D01*
X354610Y140616D01*
X354611Y140618D01*
X354613Y140619D01*
X354645Y140704D01*
X354645Y150596D01*
X354645Y150598D01*
X354645Y150600D01*
X354625Y150643D01*
X354607Y150687D01*
X354605Y150687D01*
X354604Y150689D01*
X354519Y150722D01*
X350327Y150722D01*
X350325Y150721D01*
X350323Y150722D01*
X350280Y150702D01*
X350237Y150684D01*
X350236Y150682D01*
X350234Y150681D01*
X350201Y150596D01*
X350201Y140704D01*
X350202Y140702D01*
X350201Y140700D01*
X350221Y140657D01*
X350239Y140613D01*
X350241Y140613D01*
X350242Y140611D01*
X350327Y140578D01*
X354519Y140578D01*
X354521Y140579D01*
G37*
%LPC*%
G36*
X330172Y171400D02*
X330172Y171400D01*
X330172Y175148D01*
X333920Y175148D01*
X333920Y171400D01*
X330172Y171400D01*
G37*
%LPD*%
%LPC*%
G36*
X338046Y171400D02*
X338046Y171400D01*
X338046Y175148D01*
X341794Y175148D01*
X341794Y171400D01*
X338046Y171400D01*
G37*
%LPD*%
%LPC*%
G36*
X345920Y171400D02*
X345920Y171400D01*
X345920Y175148D01*
X349668Y175148D01*
X349668Y171400D01*
X345920Y171400D01*
G37*
%LPD*%
%LPC*%
G36*
X330172Y163526D02*
X330172Y163526D01*
X330172Y167274D01*
X333920Y167274D01*
X333920Y163526D01*
X330172Y163526D01*
G37*
%LPD*%
%LPC*%
G36*
X345920Y163526D02*
X345920Y163526D01*
X345920Y167274D01*
X349668Y167274D01*
X349668Y163526D01*
X345920Y163526D01*
G37*
%LPD*%
%LPC*%
G36*
X330172Y155652D02*
X330172Y155652D01*
X330172Y159400D01*
X333920Y159400D01*
X333920Y155652D01*
X330172Y155652D01*
G37*
%LPD*%
%LPC*%
G36*
X338046Y155652D02*
X338046Y155652D01*
X338046Y159400D01*
X341794Y159400D01*
X341794Y155652D01*
X338046Y155652D01*
G37*
%LPD*%
%LPC*%
G36*
X345920Y155652D02*
X345920Y155652D01*
X345920Y159400D01*
X349668Y159400D01*
X349668Y155652D01*
X345920Y155652D01*
G37*
%LPD*%
%LPC*%
G36*
X338046Y163526D02*
X338046Y163526D01*
X338046Y167274D01*
X341794Y167274D01*
X341794Y163526D01*
X338046Y163526D01*
G37*
%LPD*%
D10*
X30000Y370000D03*
X30000Y30000D03*
X570000Y370000D03*
X570000Y30000D03*
D11*
X60000Y85000D03*
X60000Y315000D03*
D12*
X395746Y79000D03*
X418080Y79000D03*
D13*
X150000Y145160D03*
D14*
X245762Y292656D03*
X245762Y320656D03*
D15*
X387178Y208978D03*
X404178Y208978D03*
X437122Y188229D03*
X420122Y188229D03*
D16*
X436750Y163820D03*
X436750Y146820D03*
D15*
X303340Y189400D03*
X286340Y189400D03*
D16*
X480240Y248580D03*
X480240Y231580D03*
X328140Y110114D03*
X328140Y93114D03*
X287429Y110114D03*
X287429Y93114D03*
D15*
X387178Y188229D03*
X404178Y188229D03*
D16*
X352390Y93114D03*
X352390Y110114D03*
D15*
X387178Y167624D03*
X404178Y167624D03*
D14*
X498236Y270492D03*
X498236Y298492D03*
X494840Y118840D03*
X494840Y90840D03*
X469840Y118840D03*
X469840Y90840D03*
D17*
X144500Y325000D03*
X125500Y325000D03*
D16*
X259000Y176580D03*
X259000Y193580D03*
D15*
X283926Y159844D03*
X266926Y159844D03*
D16*
X160000Y208500D03*
X160000Y191500D03*
X373292Y225756D03*
X373292Y242756D03*
D13*
X315480Y131200D03*
D16*
X307785Y110114D03*
X307785Y93114D03*
D18*
X215800Y106955D03*
X215800Y85365D03*
X195080Y106955D03*
X195080Y85365D03*
X174520Y106955D03*
X174520Y85365D03*
D13*
X373934Y78953D03*
D19*
X120000Y188750D02*
X120000Y211250D01*
D20*
X60000Y210000D02*
X60000Y190000D01*
X60000Y155000D02*
X40000Y155000D01*
X40000Y245000D02*
X60000Y245000D01*
D21*
X30000Y200000D03*
D22*
X277600Y55770D03*
D23*
X297600Y55770D03*
D24*
X377410Y295560D03*
X432910Y295560D03*
D13*
X385080Y352080D03*
D25*
X209900Y184350D03*
X203300Y184350D03*
X196700Y184350D03*
X190100Y184350D03*
D26*
X200000Y164425D03*
D27*
X190100Y154500D03*
X196700Y154500D03*
X203300Y154500D03*
X209900Y154500D03*
D25*
X190100Y220650D03*
X196700Y220650D03*
X203300Y220650D03*
X209900Y220650D03*
D26*
X200000Y240575D03*
D27*
X209900Y250500D03*
X203300Y250500D03*
X196700Y250500D03*
X190100Y250500D03*
D25*
X525140Y214750D03*
X518540Y214750D03*
X511940Y214750D03*
X505340Y214750D03*
D26*
X515240Y194825D03*
D27*
X505340Y184900D03*
X511940Y184900D03*
X518540Y184900D03*
X525140Y184900D03*
D28*
X327700Y246430D03*
X327700Y259130D03*
X327700Y271830D03*
X327700Y284530D03*
D29*
X271340Y284530D03*
X271340Y271830D03*
X271340Y259130D03*
X271340Y246430D03*
D30*
X290590Y265480D03*
D28*
X272140Y354450D03*
X272140Y341750D03*
X272140Y329050D03*
X272140Y316350D03*
D29*
X328500Y316350D03*
X328500Y329050D03*
X328500Y341750D03*
X328500Y354450D03*
D30*
X309250Y335400D03*
D31*
X235000Y179160D03*
X235000Y201160D03*
D32*
X309568Y212686D03*
X281128Y212686D03*
D15*
X480880Y197260D03*
X480880Y214260D03*
X501002Y248580D03*
X501002Y231580D03*
X267074Y93114D03*
X267074Y110114D03*
X352136Y64649D03*
X352136Y47649D03*
X330000Y47649D03*
X330000Y64649D03*
D16*
X136814Y125736D03*
X153814Y125736D03*
X136560Y105228D03*
X153560Y105228D03*
X136560Y84720D03*
X153560Y84720D03*
D15*
X373932Y64649D03*
X373932Y47649D03*
D31*
X460240Y166320D03*
X460240Y144320D03*
D15*
X395728Y64649D03*
X395728Y47649D03*
X418253Y64649D03*
X418253Y47649D03*
X373932Y110114D03*
X373932Y93114D03*
X395728Y110114D03*
X395728Y93114D03*
X418253Y110114D03*
X418253Y93114D03*
D33*
X150000Y270780D03*
X150000Y299220D03*
X125000Y270780D03*
X125000Y299220D03*
D15*
X160000Y224500D03*
X160000Y241500D03*
X160000Y176500D03*
X160000Y159500D03*
X330652Y208606D03*
X330652Y225606D03*
X443049Y110114D03*
X443049Y93114D03*
X443049Y64649D03*
X443049Y47649D03*
D34*
X332046Y157526D03*
X332046Y165400D03*
X332046Y173274D03*
X339920Y157526D03*
X339920Y165400D03*
X339920Y173274D03*
X347794Y157526D03*
X347794Y165400D03*
X347794Y173274D03*
D13*
X443260Y78953D03*
D35*
X373250Y199910D03*
X373250Y213910D03*
D36*
X557808Y90254D03*
D37*
X557808Y140254D03*
D38*
X59500Y85000D03*
X59500Y315000D03*
D15*
X404178Y144909D03*
X387178Y144909D03*
X442220Y127130D03*
X425220Y127130D03*
D36*
X557808Y265254D03*
D37*
X557808Y315254D03*
D39*
X559205Y186524D03*
X559205Y220334D03*
X525000Y30000D03*
X525000Y370000D03*
D22*
X132880Y55770D03*
D23*
X152880Y55770D03*
X172880Y55770D03*
X192880Y55770D03*
X212880Y55770D03*
X232880Y55770D03*
D40*
X247650Y101600D03*
X247650Y86360D03*
D41*
X468440Y71120D03*
X478680Y71120D03*
X488920Y71120D03*
X250920Y340360D03*
X250920Y350520D03*
X250920Y360680D03*
X240760Y360680D03*
X240760Y350520D03*
X240760Y340360D03*
X223520Y320040D03*
X223520Y330200D03*
X487680Y320040D03*
X497840Y320040D03*
X508000Y320040D03*
X499000Y71000D03*
X195000Y207000D03*
X205000Y207000D03*
X205000Y198000D03*
X195000Y198000D03*
X193040Y142240D03*
X203200Y142240D03*
X213360Y142240D03*
X228600Y152400D03*
X228600Y162560D03*
X250952Y273558D03*
X250952Y263398D03*
X250952Y253238D03*
X240792Y253238D03*
X240792Y263398D03*
X240792Y273558D03*
X467360Y281686D03*
X467360Y271526D03*
X467360Y261366D03*
X477520Y261366D03*
X477520Y271526D03*
X477520Y281686D03*
X523240Y228600D03*
X533400Y228600D03*
X543560Y228600D03*
X543560Y238760D03*
X533400Y238760D03*
X523240Y238760D03*
X345220Y352520D03*
X345220Y330867D03*
X345220Y320040D03*
X355705Y320040D03*
X355705Y330867D03*
X355705Y352520D03*
X345220Y341693D03*
X355705Y341693D03*
X538480Y193040D03*
X538480Y182880D03*
X538480Y172720D03*
X477520Y137160D03*
X487680Y137160D03*
X497840Y137160D03*
X505000Y170000D03*
X515000Y170000D03*
X525000Y170000D03*
X477520Y147320D03*
X487680Y147320D03*
X497840Y147320D03*
M02*
