G04 EAGLE Gerber RS-274X export*
G75*
%MOMM*%
%FSLAX34Y34*%
%LPD*%
%INSolderpaste Top*%
%IPPOS*%
%AMOC8*
5,1,8,0,0,1.08239X$1,22.5*%
G01*
%ADD10R,1.800000X1.600000*%
%ADD11R,1.100000X1.000000*%
%ADD12R,1.000000X1.100000*%
%ADD13R,1.300000X1.500000*%
%ADD14R,1.270000X1.270000*%
%ADD15R,1.850000X3.500000*%
%ADD16R,0.406400X0.990600*%
%ADD17R,2.235200X1.727200*%
%ADD18R,0.406400X0.762000*%
%ADD19R,0.766000X0.510000*%
%ADD20R,1.072000X0.560000*%
%ADD21R,1.500000X1.400000*%
%ADD22R,1.600000X1.803000*%
%ADD23R,1.803000X1.600000*%
%ADD24R,0.700000X0.600000*%

G36*
X291898Y259006D02*
X291898Y259006D01*
X291904Y259004D01*
X292003Y259014D01*
X292014Y259020D01*
X292028Y259019D01*
X292123Y259048D01*
X292132Y259056D01*
X292146Y259057D01*
X292234Y259104D01*
X292241Y259114D01*
X292254Y259118D01*
X292331Y259181D01*
X292337Y259192D01*
X292349Y259199D01*
X292412Y259276D01*
X292415Y259287D01*
X292426Y259296D01*
X292473Y259384D01*
X292474Y259396D01*
X292482Y259407D01*
X292511Y259502D01*
X292510Y259514D01*
X292516Y259527D01*
X292526Y259626D01*
X292524Y259632D01*
X292526Y259638D01*
X292526Y271322D01*
X292524Y271328D01*
X292526Y271334D01*
X292516Y271433D01*
X292510Y271444D01*
X292511Y271458D01*
X292482Y271553D01*
X292474Y271562D01*
X292473Y271576D01*
X292426Y271664D01*
X292416Y271671D01*
X292412Y271684D01*
X292349Y271761D01*
X292338Y271767D01*
X292331Y271779D01*
X292254Y271842D01*
X292243Y271845D01*
X292234Y271856D01*
X292146Y271903D01*
X292134Y271904D01*
X292123Y271912D01*
X292028Y271941D01*
X292016Y271940D01*
X292003Y271946D01*
X291904Y271956D01*
X291898Y271954D01*
X291892Y271956D01*
X278108Y271956D01*
X278102Y271954D01*
X278096Y271956D01*
X277997Y271946D01*
X277986Y271940D01*
X277972Y271941D01*
X277877Y271912D01*
X277868Y271904D01*
X277854Y271903D01*
X277766Y271856D01*
X277759Y271846D01*
X277746Y271842D01*
X277669Y271779D01*
X277663Y271768D01*
X277651Y271761D01*
X277588Y271684D01*
X277585Y271673D01*
X277574Y271664D01*
X277527Y271576D01*
X277526Y271564D01*
X277518Y271553D01*
X277489Y271458D01*
X277490Y271446D01*
X277484Y271434D01*
X277474Y271334D01*
X277476Y271328D01*
X277474Y271322D01*
X277474Y259638D01*
X277475Y259634D01*
X277474Y259631D01*
X277475Y259629D01*
X277474Y259626D01*
X277484Y259526D01*
X277490Y259516D01*
X277489Y259502D01*
X277518Y259407D01*
X277526Y259398D01*
X277527Y259384D01*
X277574Y259296D01*
X277584Y259289D01*
X277588Y259276D01*
X277651Y259199D01*
X277662Y259193D01*
X277669Y259181D01*
X277746Y259118D01*
X277757Y259115D01*
X277766Y259104D01*
X277854Y259057D01*
X277866Y259056D01*
X277877Y259048D01*
X277972Y259019D01*
X277984Y259020D01*
X277997Y259014D01*
X278096Y259004D01*
X278102Y259006D01*
X278108Y259004D01*
X291892Y259004D01*
X291898Y259006D01*
G37*
G36*
X321738Y328926D02*
X321738Y328926D01*
X321744Y328924D01*
X321843Y328934D01*
X321854Y328940D01*
X321868Y328939D01*
X321963Y328968D01*
X321972Y328976D01*
X321986Y328977D01*
X322074Y329024D01*
X322081Y329034D01*
X322094Y329038D01*
X322171Y329101D01*
X322177Y329112D01*
X322189Y329119D01*
X322252Y329196D01*
X322255Y329207D01*
X322266Y329216D01*
X322313Y329304D01*
X322314Y329316D01*
X322322Y329327D01*
X322351Y329422D01*
X322350Y329434D01*
X322356Y329446D01*
X322366Y329546D01*
X322364Y329552D01*
X322366Y329558D01*
X322366Y341242D01*
X322364Y341248D01*
X322366Y341254D01*
X322356Y341354D01*
X322350Y341364D01*
X322351Y341378D01*
X322322Y341473D01*
X322314Y341482D01*
X322313Y341496D01*
X322266Y341584D01*
X322256Y341591D01*
X322252Y341604D01*
X322189Y341681D01*
X322178Y341687D01*
X322171Y341699D01*
X322094Y341762D01*
X322083Y341765D01*
X322074Y341776D01*
X321986Y341823D01*
X321974Y341824D01*
X321963Y341832D01*
X321868Y341861D01*
X321856Y341860D01*
X321843Y341866D01*
X321744Y341876D01*
X321738Y341874D01*
X321732Y341876D01*
X307948Y341876D01*
X307942Y341874D01*
X307936Y341876D01*
X307837Y341866D01*
X307826Y341860D01*
X307812Y341861D01*
X307717Y341832D01*
X307708Y341824D01*
X307694Y341823D01*
X307606Y341776D01*
X307599Y341766D01*
X307586Y341762D01*
X307509Y341699D01*
X307503Y341688D01*
X307491Y341681D01*
X307428Y341604D01*
X307425Y341593D01*
X307414Y341584D01*
X307367Y341496D01*
X307366Y341484D01*
X307358Y341473D01*
X307329Y341378D01*
X307330Y341366D01*
X307324Y341353D01*
X307314Y341254D01*
X307316Y341248D01*
X307314Y341242D01*
X307314Y329558D01*
X307315Y329554D01*
X307314Y329551D01*
X307315Y329549D01*
X307314Y329546D01*
X307324Y329447D01*
X307330Y329436D01*
X307329Y329422D01*
X307358Y329327D01*
X307366Y329318D01*
X307367Y329304D01*
X307414Y329216D01*
X307424Y329209D01*
X307428Y329196D01*
X307491Y329119D01*
X307502Y329113D01*
X307509Y329101D01*
X307586Y329038D01*
X307597Y329035D01*
X307606Y329024D01*
X307694Y328977D01*
X307706Y328976D01*
X307717Y328968D01*
X307812Y328939D01*
X307824Y328940D01*
X307837Y328934D01*
X307936Y328924D01*
X307942Y328926D01*
X307948Y328924D01*
X321732Y328924D01*
X321738Y328926D01*
G37*
G36*
X291898Y273706D02*
X291898Y273706D01*
X291904Y273704D01*
X292003Y273714D01*
X292014Y273720D01*
X292028Y273719D01*
X292123Y273748D01*
X292132Y273756D01*
X292146Y273757D01*
X292234Y273804D01*
X292241Y273814D01*
X292254Y273818D01*
X292331Y273881D01*
X292337Y273892D01*
X292349Y273899D01*
X292412Y273976D01*
X292415Y273987D01*
X292426Y273996D01*
X292473Y274084D01*
X292474Y274096D01*
X292482Y274107D01*
X292511Y274202D01*
X292510Y274214D01*
X292516Y274227D01*
X292526Y274326D01*
X292524Y274332D01*
X292526Y274338D01*
X292526Y286022D01*
X292524Y286028D01*
X292526Y286034D01*
X292516Y286133D01*
X292510Y286144D01*
X292511Y286158D01*
X292482Y286253D01*
X292474Y286262D01*
X292473Y286276D01*
X292426Y286364D01*
X292416Y286371D01*
X292412Y286384D01*
X292349Y286461D01*
X292338Y286467D01*
X292331Y286479D01*
X292254Y286542D01*
X292243Y286545D01*
X292234Y286556D01*
X292146Y286603D01*
X292134Y286604D01*
X292123Y286612D01*
X292028Y286641D01*
X292016Y286640D01*
X292003Y286646D01*
X291904Y286656D01*
X291898Y286654D01*
X291892Y286656D01*
X278108Y286656D01*
X278102Y286654D01*
X278096Y286656D01*
X277997Y286646D01*
X277986Y286640D01*
X277972Y286641D01*
X277877Y286612D01*
X277868Y286604D01*
X277854Y286603D01*
X277766Y286556D01*
X277759Y286546D01*
X277746Y286542D01*
X277669Y286479D01*
X277663Y286468D01*
X277651Y286461D01*
X277588Y286384D01*
X277585Y286373D01*
X277574Y286364D01*
X277527Y286276D01*
X277526Y286264D01*
X277518Y286253D01*
X277489Y286158D01*
X277490Y286146D01*
X277484Y286134D01*
X277474Y286034D01*
X277476Y286028D01*
X277474Y286022D01*
X277474Y274338D01*
X277475Y274334D01*
X277474Y274331D01*
X277475Y274329D01*
X277474Y274326D01*
X277484Y274226D01*
X277490Y274216D01*
X277489Y274202D01*
X277518Y274107D01*
X277526Y274098D01*
X277527Y274084D01*
X277574Y273996D01*
X277584Y273989D01*
X277588Y273976D01*
X277651Y273899D01*
X277662Y273893D01*
X277669Y273881D01*
X277746Y273818D01*
X277757Y273815D01*
X277766Y273804D01*
X277854Y273757D01*
X277866Y273756D01*
X277877Y273748D01*
X277972Y273719D01*
X277984Y273720D01*
X277997Y273714D01*
X278096Y273704D01*
X278102Y273706D01*
X278108Y273704D01*
X291892Y273704D01*
X291898Y273706D01*
G37*
G36*
X321738Y314226D02*
X321738Y314226D01*
X321744Y314224D01*
X321843Y314234D01*
X321854Y314240D01*
X321868Y314239D01*
X321963Y314268D01*
X321972Y314276D01*
X321986Y314277D01*
X322074Y314324D01*
X322081Y314334D01*
X322094Y314338D01*
X322171Y314401D01*
X322177Y314412D01*
X322189Y314419D01*
X322252Y314496D01*
X322255Y314507D01*
X322266Y314516D01*
X322313Y314604D01*
X322314Y314616D01*
X322322Y314627D01*
X322351Y314722D01*
X322350Y314734D01*
X322356Y314747D01*
X322366Y314846D01*
X322364Y314852D01*
X322366Y314858D01*
X322366Y326542D01*
X322364Y326548D01*
X322366Y326554D01*
X322356Y326654D01*
X322350Y326664D01*
X322351Y326678D01*
X322322Y326773D01*
X322314Y326782D01*
X322313Y326796D01*
X322266Y326884D01*
X322256Y326891D01*
X322252Y326904D01*
X322189Y326981D01*
X322178Y326987D01*
X322171Y326999D01*
X322094Y327062D01*
X322083Y327065D01*
X322074Y327076D01*
X321986Y327123D01*
X321974Y327124D01*
X321963Y327132D01*
X321868Y327161D01*
X321856Y327160D01*
X321843Y327166D01*
X321744Y327176D01*
X321738Y327174D01*
X321732Y327176D01*
X307948Y327176D01*
X307942Y327174D01*
X307936Y327176D01*
X307837Y327166D01*
X307826Y327160D01*
X307812Y327161D01*
X307717Y327132D01*
X307708Y327124D01*
X307694Y327123D01*
X307606Y327076D01*
X307599Y327066D01*
X307586Y327062D01*
X307509Y326999D01*
X307503Y326988D01*
X307491Y326981D01*
X307428Y326904D01*
X307425Y326893D01*
X307414Y326884D01*
X307367Y326796D01*
X307366Y326784D01*
X307358Y326773D01*
X307329Y326678D01*
X307330Y326666D01*
X307324Y326653D01*
X307314Y326554D01*
X307316Y326548D01*
X307314Y326542D01*
X307314Y314858D01*
X307315Y314854D01*
X307314Y314851D01*
X307315Y314849D01*
X307314Y314846D01*
X307324Y314747D01*
X307330Y314736D01*
X307329Y314722D01*
X307358Y314627D01*
X307366Y314618D01*
X307367Y314604D01*
X307414Y314516D01*
X307424Y314509D01*
X307428Y314496D01*
X307491Y314419D01*
X307502Y314413D01*
X307509Y314401D01*
X307586Y314338D01*
X307597Y314335D01*
X307606Y314324D01*
X307694Y314277D01*
X307706Y314276D01*
X307717Y314268D01*
X307812Y314239D01*
X307824Y314240D01*
X307837Y314234D01*
X307936Y314224D01*
X307942Y314226D01*
X307948Y314224D01*
X321732Y314224D01*
X321738Y314226D01*
G37*
G36*
X291898Y244306D02*
X291898Y244306D01*
X291904Y244304D01*
X292003Y244314D01*
X292014Y244320D01*
X292028Y244319D01*
X292123Y244348D01*
X292132Y244356D01*
X292146Y244357D01*
X292234Y244404D01*
X292241Y244414D01*
X292254Y244418D01*
X292331Y244481D01*
X292337Y244492D01*
X292349Y244499D01*
X292412Y244576D01*
X292415Y244587D01*
X292426Y244596D01*
X292473Y244684D01*
X292474Y244696D01*
X292482Y244707D01*
X292511Y244802D01*
X292510Y244814D01*
X292516Y244827D01*
X292526Y244926D01*
X292524Y244932D01*
X292526Y244938D01*
X292526Y256622D01*
X292524Y256628D01*
X292526Y256634D01*
X292516Y256733D01*
X292510Y256744D01*
X292511Y256758D01*
X292482Y256853D01*
X292474Y256862D01*
X292473Y256876D01*
X292426Y256964D01*
X292416Y256971D01*
X292412Y256984D01*
X292349Y257061D01*
X292338Y257067D01*
X292331Y257079D01*
X292254Y257142D01*
X292243Y257145D01*
X292234Y257156D01*
X292146Y257203D01*
X292134Y257204D01*
X292123Y257212D01*
X292028Y257241D01*
X292016Y257240D01*
X292003Y257246D01*
X291904Y257256D01*
X291898Y257254D01*
X291892Y257256D01*
X278108Y257256D01*
X278102Y257254D01*
X278096Y257256D01*
X277997Y257246D01*
X277986Y257240D01*
X277972Y257241D01*
X277877Y257212D01*
X277868Y257204D01*
X277854Y257203D01*
X277766Y257156D01*
X277759Y257146D01*
X277746Y257142D01*
X277669Y257079D01*
X277663Y257068D01*
X277651Y257061D01*
X277588Y256984D01*
X277585Y256973D01*
X277574Y256964D01*
X277527Y256876D01*
X277526Y256864D01*
X277518Y256853D01*
X277489Y256758D01*
X277490Y256746D01*
X277484Y256734D01*
X277474Y256634D01*
X277476Y256628D01*
X277474Y256622D01*
X277474Y244938D01*
X277475Y244934D01*
X277474Y244931D01*
X277475Y244929D01*
X277474Y244926D01*
X277484Y244827D01*
X277490Y244816D01*
X277489Y244802D01*
X277518Y244707D01*
X277526Y244698D01*
X277527Y244684D01*
X277574Y244596D01*
X277584Y244589D01*
X277588Y244576D01*
X277651Y244499D01*
X277662Y244493D01*
X277669Y244481D01*
X277746Y244418D01*
X277757Y244415D01*
X277766Y244404D01*
X277854Y244357D01*
X277866Y244356D01*
X277877Y244348D01*
X277972Y244319D01*
X277984Y244320D01*
X277997Y244314D01*
X278096Y244304D01*
X278102Y244306D01*
X278108Y244304D01*
X291892Y244304D01*
X291898Y244306D01*
G37*
G36*
X321738Y343626D02*
X321738Y343626D01*
X321744Y343624D01*
X321843Y343634D01*
X321854Y343640D01*
X321868Y343639D01*
X321963Y343668D01*
X321972Y343676D01*
X321986Y343677D01*
X322074Y343724D01*
X322081Y343734D01*
X322094Y343738D01*
X322171Y343801D01*
X322177Y343812D01*
X322189Y343819D01*
X322252Y343896D01*
X322255Y343907D01*
X322266Y343916D01*
X322313Y344004D01*
X322314Y344016D01*
X322322Y344027D01*
X322351Y344122D01*
X322350Y344134D01*
X322356Y344146D01*
X322366Y344246D01*
X322364Y344252D01*
X322366Y344258D01*
X322366Y355942D01*
X322364Y355948D01*
X322366Y355954D01*
X322356Y356054D01*
X322350Y356064D01*
X322351Y356078D01*
X322322Y356173D01*
X322314Y356182D01*
X322313Y356196D01*
X322266Y356284D01*
X322256Y356291D01*
X322252Y356304D01*
X322189Y356381D01*
X322178Y356387D01*
X322171Y356399D01*
X322094Y356462D01*
X322083Y356465D01*
X322074Y356476D01*
X321986Y356523D01*
X321974Y356524D01*
X321963Y356532D01*
X321868Y356561D01*
X321856Y356560D01*
X321843Y356566D01*
X321744Y356576D01*
X321738Y356574D01*
X321732Y356576D01*
X307948Y356576D01*
X307942Y356574D01*
X307936Y356576D01*
X307837Y356566D01*
X307826Y356560D01*
X307812Y356561D01*
X307717Y356532D01*
X307708Y356524D01*
X307694Y356523D01*
X307606Y356476D01*
X307599Y356466D01*
X307586Y356462D01*
X307509Y356399D01*
X307503Y356388D01*
X307491Y356381D01*
X307428Y356304D01*
X307425Y356293D01*
X307414Y356284D01*
X307367Y356196D01*
X307366Y356184D01*
X307358Y356173D01*
X307329Y356078D01*
X307330Y356066D01*
X307324Y356053D01*
X307314Y355954D01*
X307316Y355948D01*
X307314Y355942D01*
X307314Y344258D01*
X307315Y344254D01*
X307314Y344251D01*
X307315Y344249D01*
X307314Y344246D01*
X307324Y344147D01*
X307330Y344136D01*
X307329Y344122D01*
X307358Y344027D01*
X307366Y344018D01*
X307367Y344004D01*
X307414Y343916D01*
X307424Y343909D01*
X307428Y343896D01*
X307491Y343819D01*
X307502Y343813D01*
X307509Y343801D01*
X307586Y343738D01*
X307597Y343735D01*
X307606Y343724D01*
X307694Y343677D01*
X307706Y343676D01*
X307717Y343668D01*
X307812Y343639D01*
X307824Y343640D01*
X307837Y343634D01*
X307936Y343624D01*
X307942Y343626D01*
X307948Y343624D01*
X321732Y343624D01*
X321738Y343626D01*
G37*
G36*
X304938Y328926D02*
X304938Y328926D01*
X304944Y328924D01*
X305043Y328934D01*
X305054Y328940D01*
X305068Y328939D01*
X305163Y328968D01*
X305172Y328976D01*
X305186Y328977D01*
X305274Y329024D01*
X305281Y329034D01*
X305294Y329038D01*
X305371Y329101D01*
X305377Y329112D01*
X305389Y329119D01*
X305452Y329196D01*
X305455Y329207D01*
X305466Y329216D01*
X305513Y329304D01*
X305514Y329316D01*
X305522Y329327D01*
X305551Y329422D01*
X305550Y329434D01*
X305556Y329447D01*
X305566Y329546D01*
X305564Y329552D01*
X305566Y329558D01*
X305566Y341242D01*
X305564Y341248D01*
X305566Y341254D01*
X305556Y341353D01*
X305550Y341364D01*
X305551Y341378D01*
X305522Y341473D01*
X305514Y341482D01*
X305513Y341496D01*
X305466Y341584D01*
X305456Y341591D01*
X305452Y341604D01*
X305389Y341681D01*
X305378Y341687D01*
X305371Y341699D01*
X305294Y341762D01*
X305283Y341765D01*
X305274Y341776D01*
X305186Y341823D01*
X305174Y341824D01*
X305163Y341832D01*
X305068Y341861D01*
X305056Y341860D01*
X305043Y341866D01*
X304944Y341876D01*
X304938Y341874D01*
X304932Y341876D01*
X291148Y341876D01*
X291142Y341874D01*
X291136Y341876D01*
X291037Y341866D01*
X291026Y341860D01*
X291012Y341861D01*
X290917Y341832D01*
X290908Y341824D01*
X290894Y341823D01*
X290806Y341776D01*
X290799Y341766D01*
X290786Y341762D01*
X290709Y341699D01*
X290703Y341688D01*
X290691Y341681D01*
X290628Y341604D01*
X290625Y341593D01*
X290614Y341584D01*
X290567Y341496D01*
X290566Y341484D01*
X290558Y341473D01*
X290529Y341378D01*
X290530Y341366D01*
X290524Y341354D01*
X290514Y341254D01*
X290516Y341248D01*
X290514Y341242D01*
X290514Y329558D01*
X290515Y329554D01*
X290514Y329551D01*
X290515Y329549D01*
X290514Y329546D01*
X290524Y329446D01*
X290530Y329436D01*
X290529Y329422D01*
X290558Y329327D01*
X290566Y329318D01*
X290567Y329304D01*
X290614Y329216D01*
X290624Y329209D01*
X290628Y329196D01*
X290691Y329119D01*
X290702Y329113D01*
X290709Y329101D01*
X290786Y329038D01*
X290797Y329035D01*
X290806Y329024D01*
X290894Y328977D01*
X290906Y328976D01*
X290917Y328968D01*
X291012Y328939D01*
X291024Y328940D01*
X291037Y328934D01*
X291136Y328924D01*
X291142Y328926D01*
X291148Y328924D01*
X304932Y328924D01*
X304938Y328926D01*
G37*
G36*
X308698Y259006D02*
X308698Y259006D01*
X308704Y259004D01*
X308803Y259014D01*
X308814Y259020D01*
X308828Y259019D01*
X308923Y259048D01*
X308932Y259056D01*
X308946Y259057D01*
X309034Y259104D01*
X309041Y259114D01*
X309054Y259118D01*
X309131Y259181D01*
X309137Y259192D01*
X309149Y259199D01*
X309212Y259276D01*
X309215Y259287D01*
X309226Y259296D01*
X309273Y259384D01*
X309274Y259396D01*
X309282Y259407D01*
X309311Y259502D01*
X309310Y259514D01*
X309316Y259526D01*
X309326Y259626D01*
X309324Y259632D01*
X309326Y259638D01*
X309326Y271322D01*
X309324Y271328D01*
X309326Y271334D01*
X309316Y271434D01*
X309310Y271444D01*
X309311Y271458D01*
X309282Y271553D01*
X309274Y271562D01*
X309273Y271576D01*
X309226Y271664D01*
X309216Y271671D01*
X309212Y271684D01*
X309149Y271761D01*
X309138Y271767D01*
X309131Y271779D01*
X309054Y271842D01*
X309043Y271845D01*
X309034Y271856D01*
X308946Y271903D01*
X308934Y271904D01*
X308923Y271912D01*
X308828Y271941D01*
X308816Y271940D01*
X308803Y271946D01*
X308704Y271956D01*
X308698Y271954D01*
X308692Y271956D01*
X294908Y271956D01*
X294902Y271954D01*
X294896Y271956D01*
X294797Y271946D01*
X294786Y271940D01*
X294772Y271941D01*
X294677Y271912D01*
X294668Y271904D01*
X294654Y271903D01*
X294566Y271856D01*
X294559Y271846D01*
X294546Y271842D01*
X294469Y271779D01*
X294463Y271768D01*
X294451Y271761D01*
X294388Y271684D01*
X294385Y271673D01*
X294374Y271664D01*
X294327Y271576D01*
X294326Y271564D01*
X294318Y271553D01*
X294289Y271458D01*
X294290Y271446D01*
X294284Y271433D01*
X294274Y271334D01*
X294276Y271328D01*
X294274Y271322D01*
X294274Y259638D01*
X294275Y259634D01*
X294274Y259631D01*
X294275Y259629D01*
X294274Y259626D01*
X294284Y259527D01*
X294290Y259516D01*
X294289Y259502D01*
X294318Y259407D01*
X294326Y259398D01*
X294327Y259384D01*
X294374Y259296D01*
X294384Y259289D01*
X294388Y259276D01*
X294451Y259199D01*
X294462Y259193D01*
X294469Y259181D01*
X294546Y259118D01*
X294557Y259115D01*
X294566Y259104D01*
X294654Y259057D01*
X294666Y259056D01*
X294677Y259048D01*
X294772Y259019D01*
X294784Y259020D01*
X294797Y259014D01*
X294896Y259004D01*
X294902Y259006D01*
X294908Y259004D01*
X308692Y259004D01*
X308698Y259006D01*
G37*
G36*
X304938Y343626D02*
X304938Y343626D01*
X304944Y343624D01*
X305043Y343634D01*
X305054Y343640D01*
X305068Y343639D01*
X305163Y343668D01*
X305172Y343676D01*
X305186Y343677D01*
X305274Y343724D01*
X305281Y343734D01*
X305294Y343738D01*
X305371Y343801D01*
X305377Y343812D01*
X305389Y343819D01*
X305452Y343896D01*
X305455Y343907D01*
X305466Y343916D01*
X305513Y344004D01*
X305514Y344016D01*
X305522Y344027D01*
X305551Y344122D01*
X305550Y344134D01*
X305556Y344147D01*
X305566Y344246D01*
X305564Y344252D01*
X305566Y344258D01*
X305566Y355942D01*
X305564Y355948D01*
X305566Y355954D01*
X305556Y356053D01*
X305550Y356064D01*
X305551Y356078D01*
X305522Y356173D01*
X305514Y356182D01*
X305513Y356196D01*
X305466Y356284D01*
X305456Y356291D01*
X305452Y356304D01*
X305389Y356381D01*
X305378Y356387D01*
X305371Y356399D01*
X305294Y356462D01*
X305283Y356465D01*
X305274Y356476D01*
X305186Y356523D01*
X305174Y356524D01*
X305163Y356532D01*
X305068Y356561D01*
X305056Y356560D01*
X305043Y356566D01*
X304944Y356576D01*
X304938Y356574D01*
X304932Y356576D01*
X291148Y356576D01*
X291142Y356574D01*
X291136Y356576D01*
X291037Y356566D01*
X291026Y356560D01*
X291012Y356561D01*
X290917Y356532D01*
X290908Y356524D01*
X290894Y356523D01*
X290806Y356476D01*
X290799Y356466D01*
X290786Y356462D01*
X290709Y356399D01*
X290703Y356388D01*
X290691Y356381D01*
X290628Y356304D01*
X290625Y356293D01*
X290614Y356284D01*
X290567Y356196D01*
X290566Y356184D01*
X290558Y356173D01*
X290529Y356078D01*
X290530Y356066D01*
X290524Y356054D01*
X290514Y355954D01*
X290516Y355948D01*
X290514Y355942D01*
X290514Y344258D01*
X290515Y344254D01*
X290514Y344251D01*
X290515Y344249D01*
X290514Y344246D01*
X290524Y344146D01*
X290530Y344136D01*
X290529Y344122D01*
X290558Y344027D01*
X290566Y344018D01*
X290567Y344004D01*
X290614Y343916D01*
X290624Y343909D01*
X290628Y343896D01*
X290691Y343819D01*
X290702Y343813D01*
X290709Y343801D01*
X290786Y343738D01*
X290797Y343735D01*
X290806Y343724D01*
X290894Y343677D01*
X290906Y343676D01*
X290917Y343668D01*
X291012Y343639D01*
X291024Y343640D01*
X291037Y343634D01*
X291136Y343624D01*
X291142Y343626D01*
X291148Y343624D01*
X304932Y343624D01*
X304938Y343626D01*
G37*
G36*
X308698Y244306D02*
X308698Y244306D01*
X308704Y244304D01*
X308803Y244314D01*
X308814Y244320D01*
X308828Y244319D01*
X308923Y244348D01*
X308932Y244356D01*
X308946Y244357D01*
X309034Y244404D01*
X309041Y244414D01*
X309054Y244418D01*
X309131Y244481D01*
X309137Y244492D01*
X309149Y244499D01*
X309212Y244576D01*
X309215Y244587D01*
X309226Y244596D01*
X309273Y244684D01*
X309274Y244696D01*
X309282Y244707D01*
X309311Y244802D01*
X309310Y244814D01*
X309316Y244827D01*
X309326Y244926D01*
X309324Y244932D01*
X309326Y244938D01*
X309326Y256622D01*
X309324Y256628D01*
X309326Y256634D01*
X309316Y256734D01*
X309310Y256744D01*
X309311Y256758D01*
X309282Y256853D01*
X309274Y256862D01*
X309273Y256876D01*
X309226Y256964D01*
X309216Y256971D01*
X309212Y256984D01*
X309149Y257061D01*
X309138Y257067D01*
X309131Y257079D01*
X309054Y257142D01*
X309043Y257145D01*
X309034Y257156D01*
X308946Y257203D01*
X308934Y257204D01*
X308923Y257212D01*
X308828Y257241D01*
X308816Y257240D01*
X308803Y257246D01*
X308704Y257256D01*
X308698Y257254D01*
X308692Y257256D01*
X294908Y257256D01*
X294902Y257254D01*
X294896Y257256D01*
X294797Y257246D01*
X294786Y257240D01*
X294772Y257241D01*
X294677Y257212D01*
X294668Y257204D01*
X294654Y257203D01*
X294566Y257156D01*
X294559Y257146D01*
X294546Y257142D01*
X294469Y257079D01*
X294463Y257068D01*
X294451Y257061D01*
X294388Y256984D01*
X294385Y256973D01*
X294374Y256964D01*
X294327Y256876D01*
X294326Y256864D01*
X294318Y256853D01*
X294289Y256758D01*
X294290Y256746D01*
X294284Y256733D01*
X294274Y256634D01*
X294276Y256628D01*
X294274Y256622D01*
X294274Y244938D01*
X294275Y244934D01*
X294274Y244931D01*
X294275Y244929D01*
X294274Y244926D01*
X294284Y244827D01*
X294290Y244816D01*
X294289Y244802D01*
X294318Y244707D01*
X294326Y244698D01*
X294327Y244684D01*
X294374Y244596D01*
X294384Y244589D01*
X294388Y244576D01*
X294451Y244499D01*
X294462Y244493D01*
X294469Y244481D01*
X294546Y244418D01*
X294557Y244415D01*
X294566Y244404D01*
X294654Y244357D01*
X294666Y244356D01*
X294677Y244348D01*
X294772Y244319D01*
X294784Y244320D01*
X294797Y244314D01*
X294896Y244304D01*
X294902Y244306D01*
X294908Y244304D01*
X308692Y244304D01*
X308698Y244306D01*
G37*
G36*
X304938Y314226D02*
X304938Y314226D01*
X304944Y314224D01*
X305043Y314234D01*
X305054Y314240D01*
X305068Y314239D01*
X305163Y314268D01*
X305172Y314276D01*
X305186Y314277D01*
X305274Y314324D01*
X305281Y314334D01*
X305294Y314338D01*
X305371Y314401D01*
X305377Y314412D01*
X305389Y314419D01*
X305452Y314496D01*
X305455Y314507D01*
X305466Y314516D01*
X305513Y314604D01*
X305514Y314616D01*
X305522Y314627D01*
X305551Y314722D01*
X305550Y314734D01*
X305556Y314747D01*
X305566Y314846D01*
X305564Y314852D01*
X305566Y314858D01*
X305566Y326542D01*
X305564Y326548D01*
X305566Y326554D01*
X305556Y326653D01*
X305550Y326664D01*
X305551Y326678D01*
X305522Y326773D01*
X305514Y326782D01*
X305513Y326796D01*
X305466Y326884D01*
X305456Y326891D01*
X305452Y326904D01*
X305389Y326981D01*
X305378Y326987D01*
X305371Y326999D01*
X305294Y327062D01*
X305283Y327065D01*
X305274Y327076D01*
X305186Y327123D01*
X305174Y327124D01*
X305163Y327132D01*
X305068Y327161D01*
X305056Y327160D01*
X305043Y327166D01*
X304944Y327176D01*
X304938Y327174D01*
X304932Y327176D01*
X291148Y327176D01*
X291142Y327174D01*
X291136Y327176D01*
X291037Y327166D01*
X291026Y327160D01*
X291012Y327161D01*
X290917Y327132D01*
X290908Y327124D01*
X290894Y327123D01*
X290806Y327076D01*
X290799Y327066D01*
X290786Y327062D01*
X290709Y326999D01*
X290703Y326988D01*
X290691Y326981D01*
X290628Y326904D01*
X290625Y326893D01*
X290614Y326884D01*
X290567Y326796D01*
X290566Y326784D01*
X290558Y326773D01*
X290529Y326678D01*
X290530Y326666D01*
X290524Y326654D01*
X290514Y326554D01*
X290516Y326548D01*
X290514Y326542D01*
X290514Y314858D01*
X290515Y314854D01*
X290514Y314851D01*
X290515Y314849D01*
X290514Y314846D01*
X290524Y314747D01*
X290530Y314736D01*
X290529Y314722D01*
X290558Y314627D01*
X290566Y314618D01*
X290567Y314604D01*
X290614Y314516D01*
X290624Y314509D01*
X290628Y314496D01*
X290691Y314419D01*
X290702Y314413D01*
X290709Y314401D01*
X290786Y314338D01*
X290797Y314335D01*
X290806Y314324D01*
X290894Y314277D01*
X290906Y314276D01*
X290917Y314268D01*
X291012Y314239D01*
X291024Y314240D01*
X291037Y314234D01*
X291136Y314224D01*
X291142Y314226D01*
X291148Y314224D01*
X304932Y314224D01*
X304938Y314226D01*
G37*
G36*
X308698Y273706D02*
X308698Y273706D01*
X308704Y273704D01*
X308803Y273714D01*
X308814Y273720D01*
X308828Y273719D01*
X308923Y273748D01*
X308932Y273756D01*
X308946Y273757D01*
X309034Y273804D01*
X309041Y273814D01*
X309054Y273818D01*
X309131Y273881D01*
X309137Y273892D01*
X309149Y273899D01*
X309212Y273976D01*
X309215Y273987D01*
X309226Y273996D01*
X309273Y274084D01*
X309274Y274096D01*
X309282Y274107D01*
X309311Y274202D01*
X309310Y274214D01*
X309316Y274226D01*
X309326Y274326D01*
X309324Y274332D01*
X309326Y274338D01*
X309326Y286022D01*
X309324Y286028D01*
X309326Y286034D01*
X309316Y286134D01*
X309310Y286144D01*
X309311Y286158D01*
X309282Y286253D01*
X309274Y286262D01*
X309273Y286276D01*
X309226Y286364D01*
X309216Y286371D01*
X309212Y286384D01*
X309149Y286461D01*
X309138Y286467D01*
X309131Y286479D01*
X309054Y286542D01*
X309043Y286545D01*
X309034Y286556D01*
X308946Y286603D01*
X308934Y286604D01*
X308923Y286612D01*
X308828Y286641D01*
X308816Y286640D01*
X308803Y286646D01*
X308704Y286656D01*
X308698Y286654D01*
X308692Y286656D01*
X294908Y286656D01*
X294902Y286654D01*
X294896Y286656D01*
X294797Y286646D01*
X294786Y286640D01*
X294772Y286641D01*
X294677Y286612D01*
X294668Y286604D01*
X294654Y286603D01*
X294566Y286556D01*
X294559Y286546D01*
X294546Y286542D01*
X294469Y286479D01*
X294463Y286468D01*
X294451Y286461D01*
X294388Y286384D01*
X294385Y286373D01*
X294374Y286364D01*
X294327Y286276D01*
X294326Y286264D01*
X294318Y286253D01*
X294289Y286158D01*
X294290Y286146D01*
X294284Y286133D01*
X294274Y286034D01*
X294276Y286028D01*
X294274Y286022D01*
X294274Y274338D01*
X294275Y274334D01*
X294274Y274331D01*
X294275Y274329D01*
X294274Y274326D01*
X294284Y274227D01*
X294290Y274216D01*
X294289Y274202D01*
X294318Y274107D01*
X294326Y274098D01*
X294327Y274084D01*
X294374Y273996D01*
X294384Y273989D01*
X294388Y273976D01*
X294451Y273899D01*
X294462Y273893D01*
X294469Y273881D01*
X294546Y273818D01*
X294557Y273815D01*
X294566Y273804D01*
X294654Y273757D01*
X294666Y273756D01*
X294677Y273748D01*
X294772Y273719D01*
X294784Y273720D01*
X294797Y273714D01*
X294896Y273704D01*
X294902Y273706D01*
X294908Y273704D01*
X308692Y273704D01*
X308698Y273706D01*
G37*
G36*
X337509Y158401D02*
X337509Y158401D01*
X337512Y158400D01*
X337595Y158437D01*
X339009Y159851D01*
X339011Y159854D01*
X339013Y159855D01*
X339046Y159940D01*
X339046Y162986D01*
X339045Y162989D01*
X339046Y162992D01*
X339009Y163075D01*
X337595Y164489D01*
X337592Y164491D01*
X337591Y164493D01*
X337506Y164526D01*
X334460Y164526D01*
X334457Y164525D01*
X334454Y164526D01*
X334371Y164489D01*
X332957Y163075D01*
X332956Y163072D01*
X332953Y163071D01*
X332920Y162986D01*
X332920Y159940D01*
X332921Y159937D01*
X332920Y159934D01*
X332957Y159851D01*
X334371Y158437D01*
X334374Y158436D01*
X334375Y158433D01*
X334460Y158400D01*
X337506Y158400D01*
X337509Y158401D01*
G37*
G36*
X345383Y158401D02*
X345383Y158401D01*
X345386Y158400D01*
X345469Y158437D01*
X346883Y159851D01*
X346885Y159854D01*
X346887Y159855D01*
X346920Y159940D01*
X346920Y162986D01*
X346919Y162989D01*
X346920Y162992D01*
X346883Y163075D01*
X345469Y164489D01*
X345466Y164491D01*
X345465Y164493D01*
X345380Y164526D01*
X342334Y164526D01*
X342331Y164525D01*
X342328Y164526D01*
X342245Y164489D01*
X340831Y163075D01*
X340830Y163072D01*
X340827Y163071D01*
X340794Y162986D01*
X340794Y159940D01*
X340795Y159937D01*
X340794Y159934D01*
X340831Y159851D01*
X342245Y158437D01*
X342248Y158436D01*
X342249Y158433D01*
X342334Y158400D01*
X345380Y158400D01*
X345383Y158401D01*
G37*
G36*
X337509Y166275D02*
X337509Y166275D01*
X337512Y166274D01*
X337595Y166311D01*
X339009Y167725D01*
X339011Y167728D01*
X339013Y167729D01*
X339046Y167814D01*
X339046Y170860D01*
X339045Y170863D01*
X339046Y170866D01*
X339009Y170949D01*
X337595Y172363D01*
X337592Y172365D01*
X337591Y172367D01*
X337506Y172400D01*
X334460Y172400D01*
X334457Y172399D01*
X334454Y172400D01*
X334371Y172363D01*
X332957Y170949D01*
X332956Y170946D01*
X332953Y170945D01*
X332920Y170860D01*
X332920Y167814D01*
X332921Y167811D01*
X332920Y167808D01*
X332957Y167725D01*
X334371Y166311D01*
X334374Y166310D01*
X334375Y166307D01*
X334460Y166274D01*
X337506Y166274D01*
X337509Y166275D01*
G37*
G36*
X345383Y166275D02*
X345383Y166275D01*
X345386Y166274D01*
X345469Y166311D01*
X346883Y167725D01*
X346885Y167728D01*
X346887Y167729D01*
X346920Y167814D01*
X346920Y170860D01*
X346919Y170863D01*
X346920Y170866D01*
X346883Y170949D01*
X345469Y172363D01*
X345466Y172365D01*
X345465Y172367D01*
X345380Y172400D01*
X342334Y172400D01*
X342331Y172399D01*
X342328Y172400D01*
X342245Y172363D01*
X340831Y170949D01*
X340830Y170946D01*
X340827Y170945D01*
X340794Y170860D01*
X340794Y167814D01*
X340795Y167811D01*
X340794Y167808D01*
X340831Y167725D01*
X342245Y166311D01*
X342248Y166310D01*
X342249Y166307D01*
X342334Y166274D01*
X345380Y166274D01*
X345383Y166275D01*
G37*
G36*
X363673Y171624D02*
X363673Y171624D01*
X363675Y171623D01*
X363718Y171643D01*
X363762Y171661D01*
X363763Y171663D01*
X363765Y171664D01*
X363797Y171749D01*
X363797Y174051D01*
X363797Y174053D01*
X363797Y174055D01*
X363777Y174098D01*
X363759Y174142D01*
X363757Y174143D01*
X363756Y174145D01*
X363671Y174177D01*
X355669Y174177D01*
X355667Y174177D01*
X355665Y174177D01*
X355622Y174157D01*
X355578Y174139D01*
X355577Y174137D01*
X355575Y174136D01*
X355543Y174051D01*
X355543Y171749D01*
X355544Y171747D01*
X355543Y171745D01*
X355563Y171702D01*
X355581Y171658D01*
X355583Y171657D01*
X355584Y171655D01*
X355669Y171623D01*
X363671Y171623D01*
X363673Y171624D01*
G37*
G36*
X324173Y156624D02*
X324173Y156624D01*
X324175Y156623D01*
X324218Y156643D01*
X324262Y156661D01*
X324263Y156663D01*
X324265Y156664D01*
X324297Y156749D01*
X324297Y159051D01*
X324297Y159053D01*
X324297Y159055D01*
X324277Y159098D01*
X324259Y159142D01*
X324257Y159143D01*
X324256Y159145D01*
X324171Y159177D01*
X316169Y159177D01*
X316167Y159177D01*
X316165Y159177D01*
X316122Y159157D01*
X316078Y159139D01*
X316077Y159137D01*
X316075Y159136D01*
X316043Y159051D01*
X316043Y156749D01*
X316044Y156747D01*
X316043Y156745D01*
X316063Y156702D01*
X316081Y156658D01*
X316083Y156657D01*
X316084Y156655D01*
X316169Y156623D01*
X324171Y156623D01*
X324173Y156624D01*
G37*
G36*
X338572Y181024D02*
X338572Y181024D01*
X338574Y181023D01*
X338618Y181043D01*
X338661Y181061D01*
X338662Y181063D01*
X338664Y181064D01*
X338697Y181149D01*
X338697Y189151D01*
X338696Y189153D01*
X338697Y189155D01*
X338677Y189198D01*
X338658Y189242D01*
X338656Y189243D01*
X338655Y189245D01*
X338570Y189277D01*
X336268Y189277D01*
X336266Y189277D01*
X336264Y189277D01*
X336221Y189257D01*
X336178Y189239D01*
X336177Y189237D01*
X336175Y189236D01*
X336142Y189151D01*
X336142Y181149D01*
X336143Y181147D01*
X336142Y181145D01*
X336162Y181102D01*
X336180Y181058D01*
X336182Y181057D01*
X336183Y181055D01*
X336268Y181023D01*
X338570Y181023D01*
X338572Y181024D01*
G37*
G36*
X333571Y181024D02*
X333571Y181024D01*
X333573Y181023D01*
X333616Y181043D01*
X333660Y181061D01*
X333661Y181063D01*
X333663Y181064D01*
X333695Y181149D01*
X333695Y189151D01*
X333695Y189153D01*
X333695Y189155D01*
X333676Y189198D01*
X333657Y189242D01*
X333655Y189243D01*
X333654Y189245D01*
X333569Y189277D01*
X331267Y189277D01*
X331265Y189277D01*
X331263Y189277D01*
X331220Y189257D01*
X331176Y189239D01*
X331176Y189237D01*
X331174Y189236D01*
X331141Y189151D01*
X331141Y181149D01*
X331142Y181147D01*
X331141Y181145D01*
X331161Y181102D01*
X331179Y181058D01*
X331181Y181057D01*
X331182Y181055D01*
X331267Y181023D01*
X333569Y181023D01*
X333571Y181024D01*
G37*
G36*
X348575Y181024D02*
X348575Y181024D01*
X348577Y181023D01*
X348620Y181043D01*
X348664Y181061D01*
X348664Y181063D01*
X348666Y181064D01*
X348699Y181149D01*
X348699Y189151D01*
X348698Y189153D01*
X348699Y189155D01*
X348679Y189198D01*
X348661Y189242D01*
X348659Y189243D01*
X348658Y189245D01*
X348573Y189277D01*
X346271Y189277D01*
X346269Y189277D01*
X346267Y189277D01*
X346224Y189257D01*
X346180Y189239D01*
X346179Y189237D01*
X346177Y189236D01*
X346145Y189151D01*
X346145Y181149D01*
X346145Y181147D01*
X346145Y181145D01*
X346165Y181102D01*
X346183Y181058D01*
X346185Y181057D01*
X346186Y181055D01*
X346271Y181023D01*
X348573Y181023D01*
X348575Y181024D01*
G37*
G36*
X328570Y181024D02*
X328570Y181024D01*
X328572Y181023D01*
X328615Y181043D01*
X328659Y181061D01*
X328659Y181063D01*
X328661Y181064D01*
X328694Y181149D01*
X328694Y189151D01*
X328693Y189153D01*
X328694Y189155D01*
X328674Y189198D01*
X328656Y189242D01*
X328654Y189243D01*
X328653Y189245D01*
X328568Y189277D01*
X326266Y189277D01*
X326264Y189277D01*
X326262Y189277D01*
X326219Y189257D01*
X326175Y189239D01*
X326174Y189237D01*
X326172Y189236D01*
X326140Y189151D01*
X326140Y181149D01*
X326140Y181147D01*
X326140Y181145D01*
X326159Y181102D01*
X326178Y181058D01*
X326180Y181057D01*
X326181Y181055D01*
X326266Y181023D01*
X328568Y181023D01*
X328570Y181024D01*
G37*
G36*
X353576Y181024D02*
X353576Y181024D01*
X353578Y181023D01*
X353621Y181043D01*
X353665Y181061D01*
X353666Y181063D01*
X353668Y181064D01*
X353700Y181149D01*
X353700Y189151D01*
X353700Y189153D01*
X353700Y189155D01*
X353681Y189198D01*
X353662Y189242D01*
X353660Y189243D01*
X353659Y189245D01*
X353574Y189277D01*
X351272Y189277D01*
X351270Y189277D01*
X351268Y189277D01*
X351225Y189257D01*
X351181Y189239D01*
X351181Y189237D01*
X351179Y189236D01*
X351146Y189151D01*
X351146Y181149D01*
X351147Y181147D01*
X351146Y181145D01*
X351166Y181102D01*
X351184Y181058D01*
X351186Y181057D01*
X351187Y181055D01*
X351272Y181023D01*
X353574Y181023D01*
X353576Y181024D01*
G37*
G36*
X343574Y181024D02*
X343574Y181024D01*
X343576Y181023D01*
X343619Y181043D01*
X343662Y181061D01*
X343663Y181063D01*
X343665Y181064D01*
X343698Y181149D01*
X343698Y189151D01*
X343697Y189153D01*
X343698Y189155D01*
X343678Y189198D01*
X343660Y189242D01*
X343658Y189243D01*
X343657Y189245D01*
X343572Y189277D01*
X341270Y189277D01*
X341268Y189277D01*
X341266Y189277D01*
X341223Y189257D01*
X341179Y189239D01*
X341178Y189237D01*
X341176Y189236D01*
X341143Y189151D01*
X341143Y181149D01*
X341144Y181147D01*
X341143Y181145D01*
X341163Y181102D01*
X341182Y181058D01*
X341184Y181057D01*
X341185Y181055D01*
X341270Y181023D01*
X343572Y181023D01*
X343574Y181024D01*
G37*
G36*
X338572Y141524D02*
X338572Y141524D01*
X338574Y141523D01*
X338618Y141543D01*
X338661Y141561D01*
X338662Y141563D01*
X338664Y141564D01*
X338697Y141649D01*
X338697Y149651D01*
X338696Y149653D01*
X338697Y149655D01*
X338677Y149698D01*
X338658Y149742D01*
X338656Y149743D01*
X338655Y149745D01*
X338570Y149777D01*
X336268Y149777D01*
X336266Y149777D01*
X336264Y149777D01*
X336221Y149757D01*
X336178Y149739D01*
X336177Y149737D01*
X336175Y149736D01*
X336142Y149651D01*
X336142Y141649D01*
X336143Y141647D01*
X336142Y141645D01*
X336162Y141602D01*
X336180Y141558D01*
X336182Y141557D01*
X336183Y141555D01*
X336268Y141523D01*
X338570Y141523D01*
X338572Y141524D01*
G37*
G36*
X324173Y171624D02*
X324173Y171624D01*
X324175Y171623D01*
X324218Y171643D01*
X324262Y171661D01*
X324263Y171663D01*
X324265Y171664D01*
X324297Y171749D01*
X324297Y174051D01*
X324297Y174053D01*
X324297Y174055D01*
X324277Y174098D01*
X324259Y174142D01*
X324257Y174143D01*
X324256Y174145D01*
X324171Y174177D01*
X316169Y174177D01*
X316167Y174177D01*
X316165Y174177D01*
X316122Y174157D01*
X316078Y174139D01*
X316077Y174137D01*
X316075Y174136D01*
X316043Y174051D01*
X316043Y171749D01*
X316044Y171747D01*
X316043Y171745D01*
X316063Y171702D01*
X316081Y171658D01*
X316083Y171657D01*
X316084Y171656D01*
X316169Y171623D01*
X324171Y171623D01*
X324173Y171624D01*
G37*
G36*
X328570Y141524D02*
X328570Y141524D01*
X328572Y141523D01*
X328615Y141543D01*
X328659Y141561D01*
X328659Y141563D01*
X328661Y141564D01*
X328694Y141649D01*
X328694Y149651D01*
X328693Y149653D01*
X328694Y149655D01*
X328674Y149698D01*
X328656Y149742D01*
X328654Y149743D01*
X328653Y149745D01*
X328568Y149777D01*
X326266Y149777D01*
X326264Y149777D01*
X326262Y149777D01*
X326219Y149757D01*
X326175Y149739D01*
X326174Y149737D01*
X326172Y149736D01*
X326140Y149651D01*
X326140Y141649D01*
X326140Y141647D01*
X326140Y141645D01*
X326159Y141602D01*
X326178Y141558D01*
X326180Y141557D01*
X326181Y141555D01*
X326266Y141523D01*
X328568Y141523D01*
X328570Y141524D01*
G37*
G36*
X363673Y166624D02*
X363673Y166624D01*
X363675Y166623D01*
X363718Y166643D01*
X363762Y166661D01*
X363763Y166663D01*
X363765Y166664D01*
X363797Y166749D01*
X363797Y169051D01*
X363797Y169053D01*
X363797Y169055D01*
X363777Y169098D01*
X363759Y169142D01*
X363757Y169143D01*
X363756Y169145D01*
X363671Y169177D01*
X355669Y169177D01*
X355667Y169176D01*
X355665Y169177D01*
X355622Y169157D01*
X355578Y169139D01*
X355577Y169137D01*
X355575Y169136D01*
X355543Y169051D01*
X355543Y166749D01*
X355544Y166747D01*
X355543Y166745D01*
X355563Y166702D01*
X355581Y166658D01*
X355583Y166657D01*
X355584Y166655D01*
X355669Y166623D01*
X363671Y166623D01*
X363673Y166624D01*
G37*
G36*
X324173Y166624D02*
X324173Y166624D01*
X324175Y166623D01*
X324218Y166643D01*
X324262Y166661D01*
X324263Y166663D01*
X324265Y166664D01*
X324297Y166749D01*
X324297Y169051D01*
X324297Y169053D01*
X324297Y169055D01*
X324277Y169098D01*
X324259Y169142D01*
X324257Y169143D01*
X324256Y169145D01*
X324171Y169177D01*
X316169Y169177D01*
X316167Y169176D01*
X316165Y169177D01*
X316122Y169157D01*
X316078Y169139D01*
X316077Y169137D01*
X316075Y169136D01*
X316043Y169051D01*
X316043Y166749D01*
X316044Y166747D01*
X316043Y166745D01*
X316063Y166702D01*
X316081Y166658D01*
X316083Y166657D01*
X316084Y166655D01*
X316169Y166623D01*
X324171Y166623D01*
X324173Y166624D01*
G37*
G36*
X363673Y161624D02*
X363673Y161624D01*
X363675Y161623D01*
X363718Y161643D01*
X363762Y161661D01*
X363763Y161663D01*
X363765Y161664D01*
X363797Y161749D01*
X363797Y164051D01*
X363797Y164053D01*
X363797Y164055D01*
X363777Y164098D01*
X363759Y164142D01*
X363757Y164143D01*
X363756Y164145D01*
X363671Y164177D01*
X355669Y164177D01*
X355667Y164177D01*
X355665Y164177D01*
X355622Y164157D01*
X355578Y164139D01*
X355577Y164137D01*
X355575Y164136D01*
X355543Y164051D01*
X355543Y161749D01*
X355544Y161747D01*
X355543Y161745D01*
X355563Y161702D01*
X355581Y161658D01*
X355583Y161657D01*
X355584Y161656D01*
X355669Y161623D01*
X363671Y161623D01*
X363673Y161624D01*
G37*
G36*
X324173Y161624D02*
X324173Y161624D01*
X324175Y161623D01*
X324218Y161643D01*
X324262Y161661D01*
X324263Y161663D01*
X324265Y161664D01*
X324297Y161749D01*
X324297Y164051D01*
X324297Y164053D01*
X324297Y164055D01*
X324277Y164098D01*
X324259Y164142D01*
X324257Y164143D01*
X324256Y164145D01*
X324171Y164177D01*
X316169Y164177D01*
X316167Y164177D01*
X316165Y164177D01*
X316122Y164157D01*
X316078Y164139D01*
X316077Y164137D01*
X316075Y164136D01*
X316043Y164051D01*
X316043Y161749D01*
X316044Y161747D01*
X316043Y161745D01*
X316063Y161702D01*
X316081Y161658D01*
X316083Y161657D01*
X316084Y161656D01*
X316169Y161623D01*
X324171Y161623D01*
X324173Y161624D01*
G37*
G36*
X363673Y156624D02*
X363673Y156624D01*
X363675Y156623D01*
X363718Y156643D01*
X363762Y156661D01*
X363763Y156663D01*
X363765Y156664D01*
X363797Y156749D01*
X363797Y159051D01*
X363797Y159053D01*
X363797Y159055D01*
X363777Y159098D01*
X363759Y159142D01*
X363757Y159143D01*
X363756Y159145D01*
X363671Y159177D01*
X355669Y159177D01*
X355667Y159176D01*
X355665Y159177D01*
X355622Y159157D01*
X355578Y159139D01*
X355577Y159137D01*
X355575Y159136D01*
X355543Y159051D01*
X355543Y156749D01*
X355544Y156747D01*
X355543Y156745D01*
X355563Y156702D01*
X355581Y156658D01*
X355583Y156657D01*
X355584Y156655D01*
X355669Y156623D01*
X363671Y156623D01*
X363673Y156624D01*
G37*
G36*
X353576Y141524D02*
X353576Y141524D01*
X353578Y141523D01*
X353621Y141543D01*
X353665Y141561D01*
X353666Y141563D01*
X353668Y141564D01*
X353700Y141649D01*
X353700Y149651D01*
X353700Y149653D01*
X353700Y149655D01*
X353681Y149698D01*
X353662Y149742D01*
X353660Y149743D01*
X353659Y149745D01*
X353574Y149777D01*
X351272Y149777D01*
X351270Y149777D01*
X351268Y149777D01*
X351225Y149757D01*
X351181Y149739D01*
X351181Y149737D01*
X351179Y149736D01*
X351146Y149651D01*
X351146Y141649D01*
X351147Y141647D01*
X351146Y141645D01*
X351166Y141602D01*
X351184Y141558D01*
X351186Y141557D01*
X351187Y141555D01*
X351272Y141523D01*
X353574Y141523D01*
X353576Y141524D01*
G37*
G36*
X343574Y141524D02*
X343574Y141524D01*
X343576Y141523D01*
X343619Y141543D01*
X343662Y141561D01*
X343663Y141563D01*
X343665Y141564D01*
X343698Y141649D01*
X343698Y149651D01*
X343697Y149653D01*
X343698Y149655D01*
X343678Y149698D01*
X343660Y149742D01*
X343658Y149743D01*
X343657Y149745D01*
X343572Y149777D01*
X341270Y149777D01*
X341268Y149777D01*
X341266Y149777D01*
X341223Y149757D01*
X341179Y149739D01*
X341178Y149737D01*
X341176Y149736D01*
X341143Y149651D01*
X341143Y141649D01*
X341144Y141647D01*
X341143Y141645D01*
X341163Y141602D01*
X341182Y141558D01*
X341184Y141557D01*
X341185Y141555D01*
X341270Y141523D01*
X343572Y141523D01*
X343574Y141524D01*
G37*
G36*
X333571Y141524D02*
X333571Y141524D01*
X333573Y141523D01*
X333616Y141543D01*
X333660Y141561D01*
X333661Y141563D01*
X333663Y141564D01*
X333695Y141649D01*
X333695Y149651D01*
X333695Y149653D01*
X333695Y149655D01*
X333676Y149698D01*
X333657Y149742D01*
X333655Y149743D01*
X333654Y149745D01*
X333569Y149777D01*
X331267Y149777D01*
X331265Y149777D01*
X331263Y149777D01*
X331220Y149757D01*
X331176Y149739D01*
X331176Y149737D01*
X331174Y149736D01*
X331141Y149651D01*
X331141Y141649D01*
X331142Y141647D01*
X331141Y141645D01*
X331161Y141602D01*
X331179Y141558D01*
X331181Y141557D01*
X331182Y141555D01*
X331267Y141523D01*
X333569Y141523D01*
X333571Y141524D01*
G37*
G36*
X348575Y141524D02*
X348575Y141524D01*
X348577Y141523D01*
X348620Y141543D01*
X348664Y141561D01*
X348664Y141563D01*
X348666Y141564D01*
X348699Y141649D01*
X348699Y149651D01*
X348698Y149653D01*
X348699Y149655D01*
X348679Y149698D01*
X348661Y149742D01*
X348659Y149743D01*
X348658Y149745D01*
X348573Y149777D01*
X346271Y149777D01*
X346269Y149777D01*
X346267Y149777D01*
X346224Y149757D01*
X346180Y149739D01*
X346179Y149737D01*
X346177Y149736D01*
X346145Y149651D01*
X346145Y141649D01*
X346145Y141647D01*
X346145Y141645D01*
X346165Y141602D01*
X346183Y141558D01*
X346185Y141557D01*
X346186Y141555D01*
X346271Y141523D01*
X348573Y141523D01*
X348575Y141524D01*
G37*
G36*
X363673Y176624D02*
X363673Y176624D01*
X363675Y176623D01*
X363718Y176643D01*
X363762Y176661D01*
X363763Y176663D01*
X363765Y176664D01*
X363797Y176749D01*
X363797Y179051D01*
X363797Y179053D01*
X363797Y179055D01*
X363777Y179098D01*
X363759Y179142D01*
X363757Y179143D01*
X363756Y179145D01*
X363671Y179177D01*
X355669Y179177D01*
X355667Y179176D01*
X355665Y179177D01*
X355622Y179157D01*
X355578Y179139D01*
X355577Y179137D01*
X355575Y179136D01*
X355543Y179051D01*
X355543Y176749D01*
X355544Y176747D01*
X355543Y176745D01*
X355563Y176702D01*
X355581Y176658D01*
X355583Y176657D01*
X355584Y176656D01*
X355669Y176623D01*
X363671Y176623D01*
X363673Y176624D01*
G37*
G36*
X324173Y176624D02*
X324173Y176624D01*
X324175Y176623D01*
X324218Y176643D01*
X324262Y176661D01*
X324263Y176663D01*
X324265Y176664D01*
X324297Y176749D01*
X324297Y179051D01*
X324297Y179053D01*
X324297Y179055D01*
X324277Y179098D01*
X324259Y179142D01*
X324257Y179143D01*
X324256Y179145D01*
X324171Y179177D01*
X316169Y179177D01*
X316167Y179176D01*
X316165Y179177D01*
X316122Y179157D01*
X316078Y179139D01*
X316077Y179137D01*
X316075Y179136D01*
X316043Y179051D01*
X316043Y176749D01*
X316044Y176747D01*
X316043Y176745D01*
X316063Y176702D01*
X316081Y176658D01*
X316083Y176657D01*
X316084Y176656D01*
X316169Y176623D01*
X324171Y176623D01*
X324173Y176624D01*
G37*
G36*
X363673Y151624D02*
X363673Y151624D01*
X363675Y151623D01*
X363718Y151643D01*
X363762Y151661D01*
X363763Y151663D01*
X363765Y151664D01*
X363797Y151749D01*
X363797Y154051D01*
X363797Y154053D01*
X363797Y154055D01*
X363777Y154098D01*
X363759Y154142D01*
X363757Y154143D01*
X363756Y154145D01*
X363671Y154177D01*
X355669Y154177D01*
X355667Y154176D01*
X355665Y154177D01*
X355622Y154157D01*
X355578Y154139D01*
X355577Y154137D01*
X355575Y154136D01*
X355543Y154051D01*
X355543Y151749D01*
X355544Y151747D01*
X355543Y151745D01*
X355563Y151702D01*
X355581Y151658D01*
X355583Y151657D01*
X355584Y151656D01*
X355669Y151623D01*
X363671Y151623D01*
X363673Y151624D01*
G37*
G36*
X324173Y151624D02*
X324173Y151624D01*
X324175Y151623D01*
X324218Y151643D01*
X324262Y151661D01*
X324263Y151663D01*
X324265Y151664D01*
X324297Y151749D01*
X324297Y154051D01*
X324297Y154053D01*
X324297Y154055D01*
X324277Y154098D01*
X324259Y154142D01*
X324257Y154143D01*
X324256Y154145D01*
X324171Y154177D01*
X316169Y154177D01*
X316167Y154176D01*
X316165Y154177D01*
X316122Y154157D01*
X316078Y154139D01*
X316077Y154137D01*
X316075Y154136D01*
X316043Y154051D01*
X316043Y151749D01*
X316044Y151747D01*
X316043Y151745D01*
X316063Y151702D01*
X316081Y151658D01*
X316083Y151657D01*
X316084Y151656D01*
X316169Y151623D01*
X324171Y151623D01*
X324173Y151624D01*
G37*
G36*
X337509Y174149D02*
X337509Y174149D01*
X337512Y174148D01*
X337595Y174185D01*
X339009Y175599D01*
X339011Y175602D01*
X339013Y175603D01*
X339046Y175688D01*
X339046Y176901D01*
X339045Y176903D01*
X339046Y176905D01*
X339026Y176948D01*
X339008Y176991D01*
X339006Y176992D01*
X339005Y176994D01*
X338920Y177027D01*
X333046Y177027D01*
X333044Y177026D01*
X333042Y177027D01*
X332999Y177007D01*
X332955Y176989D01*
X332955Y176987D01*
X332953Y176986D01*
X332920Y176901D01*
X332920Y175688D01*
X332921Y175685D01*
X332920Y175682D01*
X332957Y175599D01*
X334371Y174185D01*
X334374Y174184D01*
X334375Y174181D01*
X334460Y174148D01*
X337506Y174148D01*
X337509Y174149D01*
G37*
G36*
X351423Y166275D02*
X351423Y166275D01*
X351425Y166274D01*
X351468Y166294D01*
X351511Y166312D01*
X351512Y166314D01*
X351514Y166315D01*
X351547Y166400D01*
X351547Y172274D01*
X351546Y172276D01*
X351547Y172278D01*
X351527Y172321D01*
X351509Y172365D01*
X351507Y172365D01*
X351506Y172367D01*
X351421Y172400D01*
X350208Y172400D01*
X350205Y172399D01*
X350202Y172400D01*
X350119Y172363D01*
X348705Y170949D01*
X348704Y170946D01*
X348701Y170945D01*
X348668Y170860D01*
X348668Y167814D01*
X348669Y167811D01*
X348668Y167808D01*
X348705Y167725D01*
X350119Y166311D01*
X350122Y166310D01*
X350123Y166307D01*
X350208Y166274D01*
X351421Y166274D01*
X351423Y166275D01*
G37*
G36*
X338922Y153774D02*
X338922Y153774D01*
X338924Y153773D01*
X338967Y153793D01*
X339011Y153811D01*
X339011Y153813D01*
X339013Y153814D01*
X339046Y153899D01*
X339046Y155112D01*
X339045Y155115D01*
X339046Y155118D01*
X339009Y155201D01*
X337595Y156615D01*
X337592Y156617D01*
X337591Y156619D01*
X337506Y156652D01*
X334460Y156652D01*
X334457Y156651D01*
X334454Y156652D01*
X334371Y156615D01*
X332957Y155201D01*
X332956Y155198D01*
X332953Y155197D01*
X332920Y155112D01*
X332920Y153899D01*
X332921Y153897D01*
X332920Y153895D01*
X332940Y153852D01*
X332958Y153809D01*
X332960Y153808D01*
X332961Y153806D01*
X333046Y153773D01*
X338920Y153773D01*
X338922Y153774D01*
G37*
G36*
X346796Y153774D02*
X346796Y153774D01*
X346798Y153773D01*
X346841Y153793D01*
X346885Y153811D01*
X346885Y153813D01*
X346887Y153814D01*
X346920Y153899D01*
X346920Y155112D01*
X346919Y155115D01*
X346920Y155118D01*
X346883Y155201D01*
X345469Y156615D01*
X345466Y156617D01*
X345465Y156619D01*
X345380Y156652D01*
X342334Y156652D01*
X342331Y156651D01*
X342328Y156652D01*
X342245Y156615D01*
X340831Y155201D01*
X340830Y155198D01*
X340827Y155197D01*
X340794Y155112D01*
X340794Y153899D01*
X340795Y153897D01*
X340794Y153895D01*
X340814Y153852D01*
X340832Y153809D01*
X340834Y153808D01*
X340835Y153806D01*
X340920Y153773D01*
X346794Y153773D01*
X346796Y153774D01*
G37*
G36*
X329635Y166275D02*
X329635Y166275D01*
X329638Y166274D01*
X329721Y166311D01*
X331135Y167725D01*
X331137Y167728D01*
X331139Y167729D01*
X331172Y167814D01*
X331172Y170860D01*
X331171Y170863D01*
X331172Y170866D01*
X331135Y170949D01*
X329721Y172363D01*
X329718Y172365D01*
X329717Y172367D01*
X329632Y172400D01*
X328419Y172400D01*
X328417Y172399D01*
X328415Y172400D01*
X328372Y172380D01*
X328329Y172362D01*
X328328Y172360D01*
X328326Y172359D01*
X328293Y172274D01*
X328293Y166400D01*
X328294Y166398D01*
X328293Y166396D01*
X328313Y166353D01*
X328331Y166309D01*
X328333Y166309D01*
X328334Y166307D01*
X328419Y166274D01*
X329632Y166274D01*
X329635Y166275D01*
G37*
G36*
X351423Y158401D02*
X351423Y158401D01*
X351425Y158400D01*
X351468Y158420D01*
X351511Y158438D01*
X351512Y158440D01*
X351514Y158441D01*
X351547Y158526D01*
X351547Y164400D01*
X351546Y164402D01*
X351547Y164404D01*
X351527Y164447D01*
X351509Y164491D01*
X351507Y164491D01*
X351506Y164493D01*
X351421Y164526D01*
X350208Y164526D01*
X350205Y164525D01*
X350202Y164526D01*
X350119Y164489D01*
X348705Y163075D01*
X348704Y163072D01*
X348701Y163071D01*
X348668Y162986D01*
X348668Y159940D01*
X348669Y159937D01*
X348668Y159934D01*
X348705Y159851D01*
X350119Y158437D01*
X350122Y158436D01*
X350123Y158433D01*
X350208Y158400D01*
X351421Y158400D01*
X351423Y158401D01*
G37*
G36*
X329635Y158401D02*
X329635Y158401D01*
X329638Y158400D01*
X329721Y158437D01*
X331135Y159851D01*
X331137Y159854D01*
X331139Y159855D01*
X331172Y159940D01*
X331172Y162986D01*
X331171Y162989D01*
X331172Y162992D01*
X331135Y163075D01*
X329721Y164489D01*
X329718Y164491D01*
X329717Y164493D01*
X329632Y164526D01*
X328419Y164526D01*
X328417Y164525D01*
X328415Y164526D01*
X328372Y164506D01*
X328329Y164488D01*
X328328Y164486D01*
X328326Y164485D01*
X328293Y164400D01*
X328293Y158526D01*
X328294Y158524D01*
X328293Y158522D01*
X328313Y158479D01*
X328331Y158435D01*
X328333Y158435D01*
X328334Y158433D01*
X328419Y158400D01*
X329632Y158400D01*
X329635Y158401D01*
G37*
G36*
X345383Y174149D02*
X345383Y174149D01*
X345386Y174148D01*
X345469Y174185D01*
X346883Y175599D01*
X346885Y175602D01*
X346887Y175603D01*
X346920Y175688D01*
X346920Y176901D01*
X346919Y176903D01*
X346920Y176905D01*
X346900Y176948D01*
X346882Y176991D01*
X346880Y176992D01*
X346879Y176994D01*
X346794Y177027D01*
X340920Y177027D01*
X340918Y177026D01*
X340916Y177027D01*
X340873Y177007D01*
X340829Y176989D01*
X340829Y176987D01*
X340827Y176986D01*
X340794Y176901D01*
X340794Y175688D01*
X340795Y175685D01*
X340794Y175682D01*
X340831Y175599D01*
X342245Y174185D01*
X342248Y174184D01*
X342249Y174181D01*
X342334Y174148D01*
X345380Y174148D01*
X345383Y174149D01*
G37*
G36*
X351423Y153774D02*
X351423Y153774D01*
X351425Y153773D01*
X351468Y153793D01*
X351511Y153811D01*
X351512Y153813D01*
X351514Y153814D01*
X351547Y153899D01*
X351547Y156526D01*
X351546Y156528D01*
X351547Y156530D01*
X351527Y156573D01*
X351509Y156617D01*
X351507Y156617D01*
X351506Y156619D01*
X351421Y156652D01*
X350208Y156652D01*
X350205Y156651D01*
X350202Y156652D01*
X350119Y156615D01*
X348705Y155201D01*
X348704Y155198D01*
X348701Y155197D01*
X348668Y155112D01*
X348668Y153899D01*
X348669Y153897D01*
X348668Y153895D01*
X348688Y153852D01*
X348706Y153809D01*
X348708Y153808D01*
X348709Y153806D01*
X348794Y153773D01*
X351421Y153773D01*
X351423Y153774D01*
G37*
G36*
X331048Y153774D02*
X331048Y153774D01*
X331050Y153773D01*
X331093Y153793D01*
X331137Y153811D01*
X331137Y153813D01*
X331139Y153814D01*
X331172Y153899D01*
X331172Y155112D01*
X331171Y155115D01*
X331172Y155118D01*
X331135Y155201D01*
X329721Y156615D01*
X329718Y156617D01*
X329717Y156619D01*
X329632Y156652D01*
X328419Y156652D01*
X328417Y156651D01*
X328415Y156652D01*
X328372Y156632D01*
X328329Y156614D01*
X328328Y156612D01*
X328326Y156611D01*
X328293Y156526D01*
X328293Y153899D01*
X328294Y153897D01*
X328293Y153895D01*
X328313Y153852D01*
X328331Y153809D01*
X328333Y153808D01*
X328334Y153806D01*
X328419Y153773D01*
X331046Y153773D01*
X331048Y153774D01*
G37*
G36*
X329635Y174149D02*
X329635Y174149D01*
X329638Y174148D01*
X329721Y174185D01*
X331135Y175599D01*
X331137Y175602D01*
X331139Y175603D01*
X331172Y175688D01*
X331172Y176901D01*
X331171Y176903D01*
X331172Y176905D01*
X331152Y176948D01*
X331134Y176991D01*
X331132Y176992D01*
X331131Y176994D01*
X331046Y177027D01*
X328419Y177027D01*
X328417Y177026D01*
X328415Y177027D01*
X328372Y177007D01*
X328329Y176989D01*
X328328Y176987D01*
X328326Y176986D01*
X328293Y176901D01*
X328293Y174274D01*
X328294Y174272D01*
X328293Y174270D01*
X328313Y174227D01*
X328331Y174183D01*
X328333Y174183D01*
X328334Y174181D01*
X328419Y174148D01*
X329632Y174148D01*
X329635Y174149D01*
G37*
G36*
X351423Y174149D02*
X351423Y174149D01*
X351425Y174148D01*
X351468Y174168D01*
X351511Y174186D01*
X351512Y174188D01*
X351514Y174189D01*
X351547Y174274D01*
X351547Y176901D01*
X351546Y176903D01*
X351547Y176905D01*
X351527Y176948D01*
X351509Y176991D01*
X351507Y176992D01*
X351506Y176994D01*
X351421Y177027D01*
X348794Y177027D01*
X348792Y177026D01*
X348790Y177027D01*
X348747Y177007D01*
X348703Y176989D01*
X348703Y176987D01*
X348701Y176986D01*
X348668Y176901D01*
X348668Y175688D01*
X348669Y175685D01*
X348668Y175682D01*
X348705Y175599D01*
X350119Y174185D01*
X350122Y174184D01*
X350123Y174181D01*
X350208Y174148D01*
X351421Y174148D01*
X351423Y174149D01*
G37*
D10*
X245762Y292656D03*
X245762Y320656D03*
D11*
X387178Y208978D03*
X404178Y208978D03*
X437122Y188229D03*
X420122Y188229D03*
D12*
X436750Y163820D03*
X436750Y146820D03*
D11*
X303340Y189400D03*
X286340Y189400D03*
D12*
X480240Y248580D03*
X480240Y231580D03*
X328140Y110114D03*
X328140Y93114D03*
X287429Y110114D03*
X287429Y93114D03*
D11*
X387178Y188229D03*
X404178Y188229D03*
D12*
X352390Y93114D03*
X352390Y110114D03*
D11*
X387178Y167624D03*
X404178Y167624D03*
D10*
X498236Y270492D03*
X498236Y298492D03*
X494840Y118840D03*
X494840Y90840D03*
X469840Y118840D03*
X469840Y90840D03*
D13*
X144500Y325000D03*
X125500Y325000D03*
D12*
X259000Y176580D03*
X259000Y193580D03*
D11*
X283926Y159844D03*
X266926Y159844D03*
D12*
X160000Y208500D03*
X160000Y191500D03*
X373292Y225756D03*
X373292Y242756D03*
X307785Y110114D03*
X307785Y93114D03*
D14*
X215800Y106955D03*
X215800Y85365D03*
X195080Y106955D03*
X195080Y85365D03*
X174520Y106955D03*
X174520Y85365D03*
D15*
X377410Y295560D03*
X432910Y295560D03*
D16*
X209900Y184350D03*
X203300Y184350D03*
X196700Y184350D03*
X190100Y184350D03*
D17*
X200000Y164425D03*
D18*
X190100Y154500D03*
X196700Y154500D03*
X203300Y154500D03*
X209900Y154500D03*
D16*
X190100Y220650D03*
X196700Y220650D03*
X203300Y220650D03*
X209900Y220650D03*
D17*
X200000Y240575D03*
D18*
X209900Y250500D03*
X203300Y250500D03*
X196700Y250500D03*
X190100Y250500D03*
D16*
X525140Y214750D03*
X518540Y214750D03*
X511940Y214750D03*
X505340Y214750D03*
D17*
X515240Y194825D03*
D18*
X505340Y184900D03*
X511940Y184900D03*
X518540Y184900D03*
X525140Y184900D03*
D19*
X271445Y246420D03*
X271445Y259120D03*
X271445Y271820D03*
X271445Y284520D03*
D20*
X327839Y246424D03*
X327839Y259124D03*
X327839Y271824D03*
X327839Y284524D03*
D19*
X328395Y354460D03*
X328395Y341760D03*
X328395Y329060D03*
X328395Y316360D03*
D20*
X272001Y354456D03*
X272001Y341756D03*
X272001Y329056D03*
X272001Y316356D03*
D21*
X235000Y179160D03*
X235000Y201160D03*
D22*
X309568Y212686D03*
X281128Y212686D03*
D11*
X480880Y197260D03*
X480880Y214260D03*
X501002Y248580D03*
X501002Y231580D03*
X267074Y93114D03*
X267074Y110114D03*
X352136Y64649D03*
X352136Y47649D03*
X330000Y47649D03*
X330000Y64649D03*
D12*
X136814Y125736D03*
X153814Y125736D03*
X136560Y105228D03*
X153560Y105228D03*
X136560Y84720D03*
X153560Y84720D03*
D11*
X373932Y64649D03*
X373932Y47649D03*
D21*
X460240Y166320D03*
X460240Y144320D03*
D11*
X395728Y64649D03*
X395728Y47649D03*
X418253Y64649D03*
X418253Y47649D03*
X373932Y110114D03*
X373932Y93114D03*
X395728Y110114D03*
X395728Y93114D03*
X418253Y110114D03*
X418253Y93114D03*
D23*
X150000Y270780D03*
X150000Y299220D03*
X125000Y270780D03*
X125000Y299220D03*
D11*
X160000Y224500D03*
X160000Y241500D03*
X160000Y176500D03*
X160000Y159500D03*
X330652Y208606D03*
X330652Y225606D03*
X443049Y110114D03*
X443049Y93114D03*
X443049Y64649D03*
X443049Y47649D03*
D24*
X373250Y199910D03*
X373250Y213910D03*
D11*
X404178Y144909D03*
X387178Y144909D03*
X442220Y127130D03*
X425220Y127130D03*
M02*
